<svg width="20" height="20" viewBox="0 0 20 20" fill="none" xmlns="http://www.w3.org/2000/svg">
<g clip-path="url(#clip0_105_1636)">
<path d="M5.8338 5L5.74047 5.005C5.59228 5.02162 5.45126 5.07769 5.33213 5.16738C5.213 5.25707 5.12011 5.37708 5.06316 5.51489C5.00622 5.65271 4.98729 5.80328 5.00836 5.9509C5.02944 6.09853 5.08973 6.23779 5.18297 6.35417L8.10047 10L5.1838 13.6458C5.0857 13.7684 5.0242 13.9161 5.00638 14.072C4.98855 14.228 5.01513 14.3858 5.08305 14.5273C5.15097 14.6688 5.25747 14.7882 5.39029 14.8718C5.52311 14.9555 5.67684 14.9999 5.8338 15H10.8338C10.9586 14.9999 11.0819 14.9718 11.1944 14.9177C11.3069 14.8636 11.4058 14.7849 11.4838 14.6875L14.8171 10.5208C14.9355 10.373 14.9999 10.1893 14.9999 10C14.9999 9.81066 14.9355 9.62697 14.8171 9.47917L11.4838 5.3125C11.4058 5.21505 11.3069 5.13638 11.1944 5.08229C11.0819 5.0282 10.9586 5.00008 10.8338 5H5.8338Z" fill="#3BA6B1"/>
</g>
<defs>
<clipPath id="clip0_105_1636">
<rect width="20" height="20" fill="white"/>
</clipPath>
</defs>
</svg>
