<svg width="21" height="21" viewBox="0 0 21 21" fill="none" xmlns="http://www.w3.org/2000/svg">
<g clip-path="url(#clip0_63_757)">
<path d="M5.08929 11.3585C5.24222 12.4607 5.70287 13.4975 6.41836 14.3497C7.13386 15.202 8.07519 15.8352 9.13428 16.1766C10.1934 16.5181 11.3273 16.554 12.4058 16.2801C13.4844 16.0063 14.4639 15.4338 15.2318 14.6285C15.1589 14.4601 15.1149 14.2807 15.1018 14.0977L15.0976 13.9735L15.1018 13.8485C15.1267 13.5171 15.2501 13.2007 15.4561 12.94C15.6622 12.6792 15.9414 12.486 16.2581 12.3852C16.5748 12.2844 16.9144 12.2805 17.2332 12.3741C17.5521 12.4677 17.8357 12.6545 18.0476 12.9105C18.2596 13.1665 18.3901 13.48 18.4225 13.8108C18.4549 14.1415 18.3877 14.4744 18.2295 14.7667C18.0713 15.0589 17.8293 15.2972 17.5347 15.4509C17.24 15.6047 16.9062 15.6668 16.576 15.6293C15.6083 16.7003 14.355 17.4728 12.9634 17.8561C11.5718 18.2394 10.0998 18.2176 8.72017 17.7931C7.34058 17.3687 6.1108 16.5593 5.17534 15.46C4.23988 14.3608 3.63761 13.0174 3.43929 11.5877C3.41629 11.3724 3.47794 11.1567 3.6112 10.9861C3.74445 10.8155 3.93886 10.7035 4.15327 10.6737C4.36767 10.6439 4.58525 10.6987 4.75996 10.8266C4.93466 10.9544 5.05277 11.1451 5.08929 11.3585Z" fill="#303030"/>
<path d="M10.9314 7.30713C11.5835 7.30713 12.2214 7.49844 12.7659 7.85737C13.3104 8.2163 13.7377 8.72708 13.9948 9.32644C14.2519 9.9258 14.3275 10.5874 14.2123 11.2293C14.097 11.8712 13.7961 12.4653 13.3466 12.9378C12.8971 13.4103 12.3189 13.7407 11.6835 13.8878C11.0482 14.035 10.3836 13.9925 9.77214 13.7657C9.16068 13.5389 8.62918 13.1377 8.24347 12.6119C7.85776 12.086 7.6348 11.4585 7.60219 10.8071L7.59802 10.6405L7.60219 10.4738C7.64495 9.61966 8.01436 8.81464 8.63401 8.22523C9.25367 7.63582 10.0762 7.30713 10.9314 7.30713Z" fill="#303030"/>
<path d="M11.883 3.21514C13.5325 3.42812 15.0662 4.17747 16.248 5.34778C17.4297 6.5181 18.194 8.04446 18.423 9.6918C18.4466 9.9073 18.3854 10.1235 18.2522 10.2946C18.119 10.4657 17.9244 10.5781 17.7097 10.608C17.495 10.6379 17.277 10.583 17.1022 10.4549C16.9273 10.3268 16.8092 10.1356 16.773 9.9218C16.5943 8.63627 15.9978 7.44517 15.0754 6.53202C14.1531 5.61887 12.9561 5.03434 11.6688 4.86847C10.748 4.74859 9.81185 4.84727 8.93624 5.15652C8.06063 5.46576 7.27015 5.97688 6.62884 6.64847C6.72482 6.87095 6.77114 7.11169 6.76456 7.3539C6.75799 7.59612 6.69868 7.83399 6.59077 8.05094C6.48286 8.26788 6.32894 8.45869 6.13974 8.61007C5.95054 8.76145 5.73061 8.86975 5.49528 8.92743C5.25994 8.98512 5.01485 8.99079 4.7771 8.94406C4.53934 8.89734 4.31463 8.79933 4.11863 8.65687C3.92263 8.51441 3.76004 8.33093 3.64221 8.11921C3.52437 7.90749 3.45411 7.67262 3.43634 7.43097L3.43134 7.3068L3.4355 7.1818C3.45226 6.9585 3.51385 6.74085 3.61659 6.54188C3.71933 6.3429 3.86112 6.16667 4.03348 6.02371C4.20585 5.88075 4.40525 5.77398 4.6198 5.7098C4.83434 5.64561 5.05961 5.62532 5.28217 5.65014C6.10358 4.74084 7.13324 4.0443 8.28288 3.6202C9.43253 3.19611 10.6679 3.05711 11.883 3.21514Z" fill="#303030"/>
</g>
<defs>
<clipPath id="clip0_63_757">
<rect width="20" height="20" fill="white" transform="translate(0.931335 0.640503)"/>
</clipPath>
</defs>
</svg>
