<svg width="21" height="21" viewBox="0 0 21 21" fill="none" xmlns="http://www.w3.org/2000/svg">
<g clip-path="url(#clip0_64_784)">
<path d="M7.80153 6.75711L2.48486 7.52794L2.39069 7.54711C2.24814 7.58495 2.11819 7.65995 2.0141 7.76444C1.91002 7.86893 1.83553 7.99918 1.79825 8.14188C1.76096 8.28457 1.76222 8.43461 1.80188 8.57667C1.84155 8.71872 1.91821 8.8477 2.02403 8.95044L5.87569 12.6996L4.96736 17.9954L4.95653 18.0871C4.9478 18.2345 4.97842 18.3816 5.04524 18.5134C5.11206 18.6451 5.21268 18.7567 5.33681 18.8367C5.46093 18.9167 5.6041 18.9623 5.75165 18.9689C5.8992 18.9754 6.04583 18.9426 6.17653 18.8738L10.9315 16.3738L15.6757 18.8738L15.759 18.9121C15.8966 18.9663 16.0461 18.9829 16.1922 18.9602C16.3382 18.9376 16.4757 18.8765 16.5904 18.7832C16.705 18.6899 16.7928 18.5677 16.8447 18.4293C16.8966 18.2909 16.9108 18.1411 16.8857 17.9954L15.9765 12.6996L19.8299 8.9496L19.8949 8.87877C19.9877 8.76441 20.0486 8.62748 20.0713 8.48193C20.094 8.33639 20.0777 8.18742 20.0241 8.05021C19.9705 7.91301 19.8815 7.79247 19.7661 7.70087C19.6507 7.60927 19.5131 7.54989 19.3674 7.52877L14.0507 6.75711L11.674 1.94044C11.6053 1.80088 11.4988 1.68337 11.3667 1.60119C11.2346 1.51902 11.0821 1.47546 10.9265 1.47546C10.7709 1.47546 10.6185 1.51902 10.4864 1.60119C10.3543 1.68337 10.2478 1.80088 10.179 1.94044L7.80153 6.75711Z" fill="#303030"/>
</g>
<defs>
<clipPath id="clip0_64_784">
<rect width="20" height="20" fill="white" transform="translate(0.931335 0.640503)"/>
</clipPath>
</defs>
</svg>
