<svg width="21" height="21" viewBox="0 0 21 21" fill="none" xmlns="http://www.w3.org/2000/svg">
<g clip-path="url(#clip0_63_764)">
<path d="M15.098 2.30713C15.5185 2.307 15.9235 2.4658 16.2318 2.75171C16.5401 3.03762 16.729 3.4295 16.7605 3.8488L16.7647 3.9738V5.64046C16.7651 6.64707 16.505 7.63664 16.0095 8.51285C15.514 9.38906 14.8 10.1221 13.9372 10.6405C14.7673 11.139 15.46 11.8364 15.953 12.6698C16.4459 13.5032 16.7234 14.4463 16.7605 15.4138L16.7647 15.6405V17.3071C16.7648 17.7276 16.606 18.1326 16.3201 18.4409C16.0342 18.7492 15.6423 18.9381 15.223 18.9696L15.098 18.9738H6.76469C6.34421 18.9739 5.93922 18.8151 5.6309 18.5292C5.32258 18.2433 5.13373 17.8514 5.10219 17.4321L5.09802 17.3071V15.6405C5.09757 14.6339 5.35776 13.6443 5.85326 12.7681C6.34875 11.8919 7.06267 11.1589 7.92552 10.6405C7.09546 10.142 6.40267 9.44451 5.90974 8.61112C5.41681 7.77773 5.13927 6.83467 5.10219 5.86713L5.09802 5.64046V3.9738C5.09789 3.55332 5.2567 3.14832 5.5426 2.84001C5.82851 2.53169 6.22039 2.34283 6.63969 2.3113L6.76469 2.30713H15.098Z" fill="#303030"/>
</g>
<defs>
<clipPath id="clip0_63_764">
<rect width="20" height="20" fill="white" transform="translate(0.931335 0.640503)"/>
</clipPath>
</defs>
</svg>
