<svg width="21" height="21" viewBox="0 0 21 21" fill="none" xmlns="http://www.w3.org/2000/svg">
<g clip-path="url(#clip0_63_751)">
<path d="M9.16633 2.48C9.56271 2.43329 9.96211 2.538 10.2846 2.77318C10.6071 3.00835 10.8288 3.35664 10.9055 3.74834L10.9263 3.8875L10.9305 3.97417V7.3075C10.9304 7.47589 10.8794 7.64032 10.784 7.77911C10.6887 7.9179 10.5535 8.02455 10.3963 8.085L10.3072 8.11417C9.87285 8.22709 9.47545 8.45118 9.15409 8.7644C8.83274 9.07761 8.59851 9.46913 8.47449 9.90039C8.35046 10.3317 8.34091 10.7878 8.44679 11.2239C8.55266 11.6599 8.7703 12.0609 9.07827 12.3873C9.38624 12.7137 9.77392 12.9542 10.2031 13.0852C10.6323 13.2162 11.0882 13.2331 11.526 13.1343C11.9637 13.0355 12.3682 12.8244 12.6995 12.5217C13.0308 12.2191 13.2776 11.8354 13.4155 11.4083L13.4572 11.2642C13.4995 11.1012 13.5903 10.9549 13.7175 10.8445C13.8447 10.7341 14.0023 10.6648 14.1697 10.6458L14.2638 10.6408H17.4305C17.8725 10.6408 18.2964 10.8164 18.609 11.129C18.9216 11.4416 19.0972 11.8655 19.0972 12.3075C19.0971 12.3709 19.0899 12.4341 19.0755 12.4958C18.742 13.9347 18.0321 15.2591 17.0184 16.3334C16.0047 17.4077 14.7237 18.1932 13.3066 18.6096C11.8895 19.026 10.3872 19.0583 8.95348 18.7031C7.51979 18.3479 6.20627 17.6181 5.14741 16.5883C4.08856 15.5585 3.32242 14.2658 2.92747 12.8426C2.53252 11.4193 2.52294 9.9167 2.89971 8.48854C3.27648 7.06038 4.02607 5.75801 5.0717 4.71482C6.11734 3.67163 7.42145 2.9251 8.85049 2.55167L9.07549 2.49584L9.16716 2.47917L9.16633 2.48Z" fill="#303030"/>
<path d="M13.2439 2.74554C13.304 2.73153 13.3655 2.72426 13.4272 2.72388L13.5289 2.72971L13.6222 2.74638L13.708 2.77138C14.8422 3.17063 15.8766 3.81061 16.7401 4.64736C17.6036 5.48411 18.2758 6.49781 18.7105 7.61888L18.8005 7.86388C18.842 7.98161 18.8565 8.10715 18.8429 8.23122C18.8293 8.3553 18.7881 8.47474 18.7221 8.58073C18.6562 8.68673 18.5674 8.77656 18.4621 8.84359C18.3568 8.91063 18.2378 8.95316 18.1139 8.96804L18.0147 8.97388H14.2647C14.1443 8.97388 14.0254 8.94782 13.9161 8.89747C13.8067 8.84712 13.7096 8.77368 13.6314 8.68221C13.404 8.41589 13.156 8.1679 12.8897 7.94054C12.732 7.80554 12.6304 7.61654 12.6047 7.41054L12.598 7.30721V3.56138L12.603 3.46304C12.6072 3.42804 12.613 3.39638 12.6197 3.36638L12.6447 3.28054C12.6766 3.19003 12.724 3.10573 12.7847 3.03138L12.8439 2.96471C12.8689 2.94138 12.8922 2.92138 12.9164 2.90221L12.9914 2.84971L13.0647 2.80804L13.1505 2.77221L13.2439 2.74554Z" fill="#303030"/>
</g>
<defs>
<clipPath id="clip0_63_751">
<rect width="20" height="20" fill="white" transform="translate(0.931335 0.640503)"/>
</clipPath>
</defs>
</svg>
