<svg width="32" height="32" viewBox="0 0 32 32" fill="none" xmlns="http://www.w3.org/2000/svg">
<rect width="32" height="32" rx="16" fill="#D111CA"/>
<g clip-path="url(#clip0_62_6833)">
<path d="M10 12.6666C10 12.313 10.1405 11.9739 10.3905 11.7238C10.6406 11.4738 10.9797 11.3333 11.3333 11.3333H20.6667C21.0203 11.3333 21.3594 11.4738 21.6095 11.7238C21.8595 11.9739 22 12.313 22 12.6666V19.3333C22 19.6869 21.8595 20.0261 21.6095 20.2761C21.3594 20.5262 21.0203 20.6666 20.6667 20.6666H11.3333C10.9797 20.6666 10.6406 20.5262 10.3905 20.2761C10.1405 20.0261 10 19.6869 10 19.3333V12.6666Z" stroke="white" stroke-width="1.5" stroke-linecap="round" stroke-linejoin="round"/>
<path d="M10 12.6667L16 16.6667L22 12.6667" stroke="white" stroke-width="1.5" stroke-linecap="round" stroke-linejoin="round"/>
</g>
<defs>
<clipPath id="clip0_62_6833">
<rect width="16" height="16" fill="white" transform="translate(8 8)"/>
</clipPath>
</defs>
</svg>
