<svg width="21" height="20" viewBox="0 0 21 20" fill="none" xmlns="http://www.w3.org/2000/svg">
<g clip-path="url(#clip0_35_2801)">
<path d="M13.3982 5.06001C14.4029 5.64011 15.2389 6.47237 15.8234 7.47453C16.408 8.47669 16.7209 9.61405 16.7312 10.7742C16.7415 11.9343 16.4489 13.0771 15.8823 14.0895C15.3157 15.1019 14.4946 15.9489 13.5004 16.5467C12.5061 17.1446 11.373 17.4727 10.2131 17.4985C9.05325 17.5243 7.9067 17.247 6.88683 16.6939C5.86695 16.1409 5.00906 15.3313 4.39795 14.3451C3.78684 13.3589 3.44367 12.2303 3.40236 11.0708L3.39819 10.8333L3.40236 10.5958C3.44335 9.44647 3.781 8.32725 4.38248 7.34696C4.98396 6.36667 5.82882 5.55866 6.83493 5.00145C7.84105 4.44425 8.97421 4.15681 10.1243 4.16707C11.2743 4.17734 12.4022 4.48495 13.3982 5.06001ZM10.0649 7.50001C9.84385 7.50001 9.63189 7.58781 9.47561 7.74409C9.31932 7.90037 9.23153 8.11233 9.23153 8.33335V10.8333L9.23736 10.9308C9.26124 11.1336 9.35869 11.3205 9.51122 11.4561C9.66375 11.5917 9.86075 11.6667 10.0649 11.6667H11.7315L11.829 11.6608C12.0317 11.637 12.2186 11.5395 12.3543 11.387C12.4899 11.2345 12.5648 11.0375 12.5649 10.8333L12.559 10.7358C12.5351 10.5331 12.4377 10.3462 12.2852 10.2106C12.1326 10.075 11.9356 10 11.7315 10H10.8982V8.33335L10.8924 8.23585C10.8685 8.03314 10.771 7.84624 10.6185 7.71061C10.466 7.57498 10.269 7.50004 10.0649 7.50001Z" fill="#FEFFFD"/>
<path d="M5.40706 2.65941C5.57844 2.53215 5.79212 2.4755 6.00404 2.50116C6.21596 2.52682 6.40995 2.63282 6.54601 2.79731C6.68206 2.9618 6.74981 3.17222 6.73528 3.38519C6.72074 3.59816 6.62503 3.79744 6.46789 3.94191L6.38706 4.00858L4.09539 5.67525C3.92407 5.80451 3.70949 5.8627 3.49634 5.83768C3.28319 5.81267 3.0879 5.70638 2.95117 5.54097C2.81443 5.37555 2.74678 5.16376 2.76232 4.94971C2.77785 4.73566 2.87537 4.53585 3.03456 4.39191L3.11539 4.32525L5.40706 2.65941Z" fill="#FEFFFD"/>
<path d="M13.5569 2.84328C13.6763 2.67913 13.8514 2.56418 14.0495 2.51999C14.2476 2.47581 14.455 2.50542 14.6328 2.60328L14.7211 2.65911L17.0128 4.32578C17.1842 4.45043 17.3016 4.6357 17.3413 4.84388C17.3809 5.05207 17.3397 5.26754 17.2261 5.44644C17.1125 5.62534 16.935 5.75424 16.7297 5.80691C16.5244 5.85958 16.3068 5.83206 16.1211 5.72995L16.0328 5.67411L13.7411 4.00745C13.6526 3.94304 13.5777 3.86184 13.5206 3.76849C13.4635 3.67513 13.4254 3.57143 13.4083 3.46333C13.3913 3.35523 13.3957 3.24483 13.4214 3.13844C13.447 3.03205 13.4925 2.93176 13.5569 2.84328Z" fill="#FEFFFD"/>
</g>
<defs>
<clipPath id="clip0_35_2801">
<rect width="20" height="20" fill="white" transform="translate(0.0648193)"/>
</clipPath>
</defs>
</svg>
