<svg width="50" height="48" viewBox="0 0 50 48" fill="none" xmlns="http://www.w3.org/2000/svg">
<path d="M0 5.01831C0 2.25689 2.23858 0.0183105 5 0.0183105H45C47.7614 0.0183105 50 2.25689 50 5.01831V32.5183C50 35.2797 47.7614 37.5183 45 37.5183H27.5V42.5183H35C36.3807 42.5183 37.5 43.6376 37.5 45.0183C37.5 46.399 36.3807 47.5183 35 47.5183H15C13.6193 47.5183 12.5 46.399 12.5 45.0183C12.5 43.6376 13.6193 42.5183 15 42.5183H22.5V37.5183H5C2.23858 37.5183 0 35.2797 0 32.5183V5.01831ZM45 32.5183V5.01831H5V32.5183H45Z" fill="#FEFFFD"/>
</svg>
