<svg width="50" height="46" viewBox="0 0 50 46" fill="none" xmlns="http://www.w3.org/2000/svg">
<path d="M5 0.422791C2.23858 0.422791 0 2.66137 0 5.42279V17.9228V40.4228C0 43.1842 2.23858 45.4228 5 45.4228H45C47.7614 45.4228 50 43.1842 50 40.4228V17.9228V5.42279C50 2.66136 47.7614 0.422791 45 0.422791H5ZM45 5.42279V15.4228H5V5.42279H45ZM5 20.4228H45V40.4228H5V20.4228ZM20 10.4228C20 11.8035 18.8807 12.9228 17.5 12.9228C16.1193 12.9228 15 11.8035 15 10.4228C15 9.04208 16.1193 7.92279 17.5 7.92279C18.8807 7.92279 20 9.04208 20 10.4228ZM10 12.9228C11.3807 12.9228 12.5 11.8035 12.5 10.4228C12.5 9.04208 11.3807 7.92279 10 7.92279C8.61929 7.92279 7.5 9.04208 7.5 10.4228C7.5 11.8035 8.61929 12.9228 10 12.9228Z" fill="#FEFFFD"/>
</svg>
