<svg width="30" height="46" viewBox="0 0 30 46" fill="none" xmlns="http://www.w3.org/2000/svg">
<path d="M0 5.3457C0 2.58428 2.23858 0.345703 5 0.345703H25C27.7614 0.345703 30 2.58428 30 5.3457V40.3457C30 43.1071 27.7614 45.3457 25 45.3457H5C2.23858 45.3457 0 43.1071 0 40.3457V5.3457ZM25 5.3457H5V40.3457H25V5.3457Z" fill="#FEFFFD"/>
<path d="M17.5 35.3457C17.5 36.7264 16.3807 37.8457 15 37.8457C13.6193 37.8457 12.5 36.7264 12.5 35.3457C12.5 33.965 13.6193 32.8457 15 32.8457C16.3807 32.8457 17.5 33.965 17.5 35.3457Z" fill="#FEFFFD"/>
</svg>
