<svg width="21" height="20" viewBox="0 0 21 20" fill="none" xmlns="http://www.w3.org/2000/svg">
<g clip-path="url(#clip0_35_2807)">
<path d="M10.0626 1.66669L10.161 1.67252L10.2101 1.67919L10.261 1.69002L10.3535 1.71835C10.4173 1.74191 10.4781 1.77325 10.5343 1.81169L10.621 1.88002L10.8335 2.06169C12.5145 3.45799 14.6392 4.20777 16.8243 4.17585L17.1093 4.16752C17.2956 4.15902 17.4794 4.21328 17.6312 4.3216C17.7831 4.42993 17.8942 4.58607 17.9468 4.76502C18.3563 6.158 18.4816 7.61909 18.3153 9.06145C18.1489 10.5038 17.6944 11.898 16.9786 13.1613C16.2628 14.4245 15.3004 15.5309 14.1485 16.4148C12.9966 17.2988 11.6789 17.9421 10.2735 18.3067C10.1363 18.3423 9.99229 18.3423 9.85512 18.3067C8.44963 17.9422 7.13176 17.2989 5.97981 16.415C4.82786 15.5311 3.86535 14.4247 3.14947 13.1615C2.43359 11.8983 1.97895 10.504 1.81257 9.06161C1.64619 7.6192 1.77147 6.15806 2.18095 4.76502C2.23354 4.58607 2.34465 4.42993 2.49649 4.3216C2.64833 4.21328 2.83212 4.15902 3.01845 4.16752C5.29967 4.2718 7.53767 3.52085 9.29428 2.06169L9.51345 1.87419L9.59345 1.81169C9.64966 1.77325 9.7104 1.74191 9.77428 1.71835L9.86762 1.69002C9.90028 1.68213 9.9334 1.67629 9.96678 1.67252L10.0626 1.66669ZM13.1543 7.74419C13.0769 7.66671 12.985 7.60524 12.8838 7.5633C12.7827 7.52137 12.6742 7.49978 12.5647 7.49978C12.4552 7.49978 12.3467 7.52137 12.2456 7.5633C12.1444 7.60524 12.0525 7.66671 11.9751 7.74419L9.23095 10.4875L8.15345 9.41085L8.07512 9.34169C7.90762 9.21218 7.69711 9.15128 7.48635 9.17135C7.27558 9.19143 7.08035 9.29098 6.94032 9.44979C6.8003 9.60859 6.72596 9.81474 6.73243 10.0264C6.73889 10.238 6.82566 10.4392 6.97512 10.5892L8.64178 12.2559L8.72012 12.325C8.88045 12.4494 9.08066 12.511 9.28319 12.4983C9.48571 12.4855 9.67662 12.3993 9.82012 12.2559L13.1535 8.92252L13.2226 8.84419C13.347 8.68385 13.4086 8.48364 13.3959 8.28112C13.3831 8.0786 13.2969 7.88768 13.1535 7.74419H13.1543Z" fill="#FEFFFD"/>
</g>
<defs>
<clipPath id="clip0_35_2807">
<rect width="20" height="20" fill="white" transform="translate(0.0648193)"/>
</clipPath>
</defs>
</svg>
