<svg width="21" height="20" viewBox="0 0 21 20" fill="none" xmlns="http://www.w3.org/2000/svg">
<g clip-path="url(#clip0_35_2798)">
<path d="M6.93501 6.1166L1.61835 6.88744L1.52418 6.9066C1.38163 6.94445 1.25167 7.01944 1.14759 7.12394C1.0435 7.22843 0.969015 7.35868 0.93173 7.50137C0.894446 7.64407 0.895701 7.79411 0.935368 7.93616C0.975035 8.07822 1.05169 8.2072 1.15751 8.30994L5.00918 12.0591L4.10085 17.3549L4.09001 17.4466C4.08129 17.594 4.1119 17.7411 4.17872 17.8729C4.24554 18.0046 4.34617 18.1162 4.47029 18.1962C4.59442 18.2762 4.73759 18.3218 4.88514 18.3284C5.03269 18.3349 5.17932 18.3021 5.31001 18.2333L10.065 15.7333L14.8092 18.2333L14.8925 18.2716C15.0301 18.3258 15.1796 18.3424 15.3256 18.3197C15.4717 18.2971 15.6092 18.236 15.7238 18.1427C15.8385 18.0494 15.9263 17.9272 15.9782 17.7888C16.0301 17.6504 16.0442 17.5006 16.0192 17.3549L15.11 12.0591L18.9633 8.3091L19.0283 8.23827C19.1212 8.12391 19.1821 7.98698 19.2048 7.84143C19.2275 7.69588 19.2112 7.54692 19.1576 7.40971C19.104 7.2725 19.0149 7.15196 18.8996 7.06036C18.7842 6.96876 18.6466 6.90938 18.5008 6.88827L13.1842 6.1166L10.8075 1.29994C10.7387 1.16038 10.6323 1.04286 10.5002 0.960689C10.3681 0.878514 10.2156 0.834961 10.06 0.834961C9.90443 0.834961 9.75196 0.878514 9.61985 0.960689C9.48775 1.04286 9.38128 1.16038 9.31251 1.29994L6.93501 6.1166Z" fill="#FEFFFD"/>
</g>
<defs>
<clipPath id="clip0_35_2798">
<rect width="20" height="20" fill="white" transform="translate(0.0648193)"/>
</clipPath>
</defs>
</svg>
