<svg width="21" height="21" viewBox="0 0 21 21" fill="none" xmlns="http://www.w3.org/2000/svg">
<g clip-path="url(#clip0_2071_360)">
<path d="M18.3981 6.43555V14.323C18.3981 14.9607 18.1545 15.5743 17.717 16.0383C17.2796 16.5022 16.6814 16.7815 16.0448 16.8189L15.8981 16.823H4.23145C3.59377 16.8231 2.98018 16.5794 2.51623 16.142C2.05227 15.7045 1.77302 15.1063 1.73561 14.4697L1.73145 14.323V6.43555L9.60228 11.683L9.69895 11.738C9.81287 11.7937 9.93799 11.8226 10.0648 11.8226C10.1916 11.8226 10.3167 11.7937 10.4306 11.738L10.5273 11.683L18.3981 6.43555Z" fill="#FEFFFD"/>
<path d="M15.8984 3.48975C16.7984 3.48975 17.5875 3.96475 18.0275 4.67891L10.065 9.98725L2.10254 4.67891C2.31148 4.33955 2.59855 4.05508 2.9398 3.84923C3.28104 3.64338 3.66657 3.52213 4.06421 3.49558L4.23171 3.48975H15.8984Z" fill="#FEFFFD"/>
</g>
<defs>
<clipPath id="clip0_2071_360">
<rect width="20" height="20" fill="white" transform="translate(0.0648193 0.15625)"/>
</clipPath>
</defs>
</svg>
