<svg width="21" height="21" viewBox="0 0 21 21" fill="none" xmlns="http://www.w3.org/2000/svg">
<g clip-path="url(#clip0_2071_355)">
<path d="M7.56484 2.65625C7.71424 2.65621 7.86091 2.69633 7.98948 2.77242C8.11806 2.84851 8.22381 2.95777 8.29567 3.08875L8.33817 3.18042L10.0048 7.34708C10.072 7.51472 10.0828 7.69962 10.0358 7.87396C9.98874 8.04829 9.88634 8.20264 9.74401 8.31375L9.66067 8.37042L8.26567 9.20708L8.31817 9.29292C8.98214 10.3471 9.87401 11.239 10.9282 11.9029L11.0132 11.9546L11.8507 10.5612C11.9435 10.4063 12.0841 10.2857 12.2514 10.2176C12.4187 10.1496 12.6035 10.1377 12.7782 10.1837L12.874 10.2162L17.0407 11.8829C17.1794 11.9383 17.3007 12.0299 17.3919 12.1482C17.4831 12.2665 17.5408 12.4072 17.559 12.5554L17.5648 12.6562V15.9896C17.5648 17.3704 16.4457 18.4896 15.0148 18.4879C7.86567 18.0537 2.16651 12.3546 1.73151 5.15625C1.73147 4.51857 1.97511 3.90499 2.41258 3.44103C2.85004 2.97708 3.44826 2.69783 4.08484 2.66042L4.23151 2.65625H7.56484Z" fill="#FEFFFD"/>
</g>
<defs>
<clipPath id="clip0_2071_355">
<rect width="20" height="20" fill="white" transform="translate(0.0648193 0.15625)"/>
</clipPath>
</defs>
</svg>
