<svg width="21" height="20" viewBox="0 0 21 20" fill="none" xmlns="http://www.w3.org/2000/svg">
<g clip-path="url(#clip0_35_2795)">
<path d="M12.7482 7.81221C12.8849 7.64157 13.0833 7.53151 13.3004 7.50579C13.5176 7.48007 13.7362 7.54074 13.909 7.67471L13.9873 7.74388L17.3207 11.0772C17.4502 11.2068 17.5333 11.3755 17.5573 11.5572L17.5648 11.6664V15.833C17.5648 16.0372 17.4899 16.2342 17.3542 16.3867C17.2186 16.5392 17.0317 16.6367 16.829 16.6605L16.7315 16.6664H3.37982L3.28815 16.6589L3.19649 16.6422L3.10732 16.6139L3.01982 16.5755L2.93649 16.5264L2.85815 16.468L2.80815 16.4222L2.74815 16.3539L2.69482 16.2797L2.64982 16.1997L2.63649 16.1705L2.60315 16.0847L2.58065 15.9964L2.56815 15.9064L2.56482 15.8147L2.57232 15.723L2.58815 15.6355C2.59649 15.6022 2.60649 15.5714 2.61732 15.5422L2.65565 15.4547L2.70482 15.3714L6.03815 10.3714C6.14075 10.2169 6.29193 10.1011 6.46778 10.0422C6.64362 9.98335 6.83407 9.98481 7.00899 10.0464L7.10399 10.088L9.83482 11.453L12.7473 7.81221H12.7482Z" fill="#FEFFFD"/>
<path d="M12.7582 2.80021C12.8965 2.63409 13.0939 2.52819 13.3088 2.50487C13.5237 2.48155 13.7392 2.54262 13.9099 2.67521L13.9874 2.74437L17.3207 6.07771C17.4702 6.22767 17.5569 6.4289 17.5634 6.64053C17.5699 6.85215 17.4955 7.0583 17.3555 7.2171C17.2155 7.37591 17.0203 7.47546 16.8095 7.49554C16.5987 7.51562 16.3882 7.45472 16.2207 7.32521L16.1424 7.25604L13.4541 4.56854L9.87155 8.86687C9.76273 8.99741 9.6166 9.09156 9.45276 9.13669C9.28892 9.18182 9.1152 9.17578 8.95488 9.11937L8.85905 9.07854L6.14738 7.72354L4.06488 10.5002C3.94314 10.6626 3.76634 10.7749 3.56765 10.8162C3.36897 10.8575 3.16205 10.8248 2.98572 10.7244L2.89822 10.6669C2.73586 10.5451 2.62351 10.3683 2.58224 10.1696C2.54097 9.97096 2.57361 9.76404 2.67405 9.58771L2.73155 9.50021L5.23155 6.16687C5.33842 6.02452 5.48807 5.92013 5.65858 5.869C5.82908 5.81786 6.01148 5.82267 6.17905 5.88271L6.27072 5.92187L9.01322 7.29271L12.7582 2.80021Z" fill="#FEFFFD"/>
</g>
<defs>
<clipPath id="clip0_35_2795">
<rect width="20" height="20" fill="white" transform="translate(0.0648193)"/>
</clipPath>
</defs>
</svg>
