<svg width="21" height="21" viewBox="0 0 21 21" fill="none" xmlns="http://www.w3.org/2000/svg">
<g clip-path="url(#clip0_64_779)">
<path d="M16.7647 3.97388C17.4277 3.97388 18.0636 4.23727 18.5325 4.70611C19.0013 5.17495 19.2647 5.81084 19.2647 6.47388V14.8072C19.2647 15.4703 19.0013 16.1061 18.5325 16.575C18.0636 17.0438 17.4277 17.3072 16.7647 17.3072H5.09802C4.43498 17.3072 3.7991 17.0438 3.33026 16.575C2.86141 16.1061 2.59802 15.4703 2.59802 14.8072V6.47388C2.59802 5.81084 2.86141 5.17495 3.33026 4.70611C3.7991 4.23727 4.43498 3.97388 5.09802 3.97388H16.7647ZM5.93969 6.47388L5.83386 6.47971C5.62294 6.5048 5.42957 6.60947 5.29324 6.77235C5.15692 6.93523 5.08793 7.14401 5.10038 7.35605C5.11283 7.56808 5.20577 7.76736 5.36022 7.91317C5.51466 8.05898 5.71896 8.14031 5.93136 8.14054L6.03719 8.13471C6.2481 8.10962 6.44148 8.00495 6.5778 7.84207C6.71413 7.67919 6.78311 7.47041 6.77067 7.25837C6.75822 7.04634 6.66528 6.84706 6.51083 6.70125C6.35638 6.55544 6.15209 6.47411 5.93969 6.47388ZM8.43969 6.47388L8.33386 6.47971C8.12294 6.5048 7.92957 6.60947 7.79324 6.77235C7.65692 6.93523 7.58793 7.14401 7.60038 7.35605C7.61283 7.56808 7.70577 7.76736 7.86022 7.91317C8.01466 8.05898 8.21896 8.14031 8.43136 8.14054L8.53719 8.13471C8.7481 8.10962 8.94148 8.00495 9.0778 7.84207C9.21413 7.67919 9.28311 7.47041 9.27067 7.25837C9.25822 7.04634 9.16528 6.84706 9.01083 6.70125C8.85638 6.55544 8.65209 6.47411 8.43969 6.47388Z" fill="#303030"/>
</g>
<defs>
<clipPath id="clip0_64_779">
<rect width="20" height="20" fill="white" transform="translate(0.931335 0.640503)"/>
</clipPath>
</defs>
</svg>
