<svg width="21" height="21" viewBox="0 0 21 21" fill="none" xmlns="http://www.w3.org/2000/svg">
<g clip-path="url(#clip0_63_739)">
<path d="M5.93134 3.1405C6.13545 3.14053 6.33245 3.21547 6.48498 3.3511C6.63751 3.48673 6.73495 3.67363 6.75884 3.87634L6.76467 3.97384V4.80717C7.18515 4.80704 7.59014 4.96584 7.89846 5.25175C8.20678 5.53766 8.39563 5.92954 8.42717 6.34884L8.43134 6.47384V8.97384C8.43147 9.39432 8.27266 9.79931 7.98675 10.1076C7.70085 10.4159 7.30896 10.6048 6.88967 10.6363L6.76467 10.6405V17.3072C6.76443 17.5196 6.6831 17.7239 6.5373 17.8783C6.39149 18.0328 6.19221 18.1257 5.98017 18.1381C5.76814 18.1506 5.55935 18.0816 5.39648 17.9453C5.2336 17.809 5.12892 17.6156 5.10384 17.4047L5.098 17.3072V10.6405C4.67752 10.6406 4.27253 10.4818 3.96421 10.1959C3.65589 9.91001 3.46704 9.51813 3.4355 9.09884L3.43134 8.97384V6.47384C3.4312 6.05336 3.59001 5.64836 3.87592 5.34005C4.16183 5.03173 4.55371 4.84287 4.973 4.81134L5.098 4.80717V3.97384C5.098 3.75282 5.1858 3.54086 5.34208 3.38458C5.49836 3.2283 5.71032 3.1405 5.93134 3.1405Z" fill="#303030"/>
<path d="M10.9313 3.1405C11.1354 3.14053 11.3324 3.21547 11.485 3.3511C11.6375 3.48673 11.735 3.67363 11.7588 3.87634L11.7647 3.97384V11.4738C12.1851 11.4737 12.5901 11.6325 12.8985 11.9184C13.2068 12.2043 13.3956 12.5962 13.4272 13.0155L13.4313 13.1405V15.6405C13.4315 16.061 13.2727 16.466 12.9868 16.7743C12.7008 17.0826 12.309 17.2715 11.8897 17.303L11.7647 17.3072C11.7644 17.5196 11.6831 17.7239 11.5373 17.8783C11.3915 18.0328 11.1922 18.1257 10.9802 18.1381C10.7681 18.1506 10.5594 18.0816 10.3965 17.9453C10.2336 17.809 10.1289 17.6156 10.1038 17.4047L10.098 17.3072L9.973 17.303C9.57619 17.2732 9.20315 17.1024 8.92131 16.8215C8.63947 16.5405 8.46745 16.168 8.43634 15.7713L8.43134 15.6405V13.1405C8.4312 12.72 8.59001 12.315 8.87592 12.0067C9.16183 11.6984 9.55371 11.5095 9.973 11.478L10.098 11.4738V3.97384C10.098 3.75282 10.1858 3.54086 10.3421 3.38458C10.4984 3.2283 10.7103 3.1405 10.9313 3.1405Z" fill="#303030"/>
<path d="M15.9313 3.1405C16.1354 3.14053 16.3324 3.21547 16.485 3.3511C16.6375 3.48673 16.735 3.67363 16.7588 3.87634L16.7647 3.97384C17.1851 3.9737 17.5901 4.13251 17.8985 4.41842C18.2068 4.70433 18.3956 5.09621 18.4272 5.5155L18.4313 5.6405V8.97384C18.4315 9.39432 18.2727 9.79931 17.9868 10.1076C17.7008 10.4159 17.309 10.6048 16.8897 10.6363L16.7647 10.6405V17.3072C16.7644 17.5196 16.6831 17.7239 16.5373 17.8783C16.3915 18.0328 16.1922 18.1257 15.9802 18.1381C15.7681 18.1506 15.5594 18.0816 15.3965 17.9453C15.2336 17.809 15.1289 17.6156 15.1038 17.4047L15.098 17.3072V10.6405C14.6775 10.6406 14.2725 10.4818 13.9642 10.1959C13.6559 9.91001 13.467 9.51813 13.4355 9.09884L13.4313 8.97384V5.6405C13.4312 5.22002 13.59 4.81503 13.8759 4.50671C14.1618 4.1984 14.5537 4.00954 14.973 3.978L15.098 3.97384C15.098 3.75282 15.1858 3.54086 15.3421 3.38458C15.4984 3.2283 15.7103 3.1405 15.9313 3.1405Z" fill="#303030"/>
</g>
<defs>
<clipPath id="clip0_63_739">
<rect width="20" height="20" fill="white" transform="translate(0.931335 0.640503)"/>
</clipPath>
</defs>
</svg>
