<svg width="21" height="21" viewBox="0 0 21 21" fill="none" xmlns="http://www.w3.org/2000/svg">
<g clip-path="url(#clip0_63_746)">
<path d="M16.2089 2.30713C17.8422 2.30713 19.1755 3.58796 19.2605 5.20046L19.2647 5.36296V15.918C19.2647 17.5513 17.9839 18.8846 16.3714 18.9696L16.2089 18.9738H5.65386C4.8715 18.9738 4.11893 18.6738 3.55119 18.1355C2.98345 17.5972 2.64379 16.8617 2.60219 16.0805L2.59802 15.918V5.36296C2.59802 3.72963 3.87886 2.3963 5.49136 2.3113L5.65386 2.30713H16.2089ZM10.9314 13.1405C10.7103 13.1405 10.4984 13.2283 10.3421 13.3845C10.1858 13.5408 10.098 13.7528 10.098 13.9738V15.6405L10.1039 15.738C10.1289 15.9489 10.2336 16.1423 10.3965 16.2786C10.5594 16.4149 10.7682 16.4839 10.9802 16.4714C11.1922 16.459 11.3915 16.366 11.5373 16.2116C11.6831 16.0572 11.7645 15.8529 11.7647 15.6405V13.9738L11.7589 13.8763C11.735 13.6736 11.6375 13.4867 11.485 13.3511C11.3325 13.2154 11.1355 13.1405 10.9314 13.1405ZM13.4314 9.80713C13.2103 9.80713 12.9984 9.89493 12.8421 10.0512C12.6858 10.2075 12.598 10.4194 12.598 10.6405V15.6405L12.6039 15.738C12.6289 15.9489 12.7336 16.1423 12.8965 16.2786C13.0594 16.4149 13.2682 16.4839 13.4802 16.4714C13.6922 16.459 13.8915 16.366 14.0373 16.2116C14.1831 16.0572 14.2645 15.8529 14.2647 15.6405V10.6405L14.2589 10.543C14.235 10.3403 14.1375 10.1534 13.985 10.0177C13.8325 9.88209 13.6355 9.80716 13.4314 9.80713ZM15.9314 11.4738C15.7103 11.4738 15.4984 11.5616 15.3421 11.7179C15.1858 11.8742 15.098 12.0861 15.098 12.3071V15.6405L15.1039 15.738C15.1289 15.9489 15.2336 16.1423 15.3965 16.2786C15.5594 16.4149 15.7682 16.4839 15.9802 16.4714C16.1922 16.459 16.3915 16.366 16.5373 16.2116C16.6831 16.0572 16.7645 15.8529 16.7647 15.6405V12.3071L16.7589 12.2096C16.735 12.0069 16.6375 11.82 16.485 11.6844C16.3325 11.5488 16.1355 11.4738 15.9314 11.4738Z" fill="#303030"/>
</g>
<defs>
<clipPath id="clip0_63_746">
<rect width="20" height="20" fill="white" transform="translate(0.931335 0.640503)"/>
</clipPath>
</defs>
</svg>
