<svg width="21" height="21" viewBox="0 0 21 21" fill="none" xmlns="http://www.w3.org/2000/svg">
<g clip-path="url(#clip0_63_734)">
<path d="M10.9292 2.30713L11.0275 2.31296L11.0767 2.31963L11.1275 2.33046L11.22 2.3588C11.2839 2.38235 11.3447 2.4137 11.4009 2.45213L11.4875 2.52046L11.7 2.70213C13.3811 4.09843 15.5057 4.84821 17.6909 4.8163L17.9759 4.80796C18.1622 4.79946 18.346 4.85372 18.4978 4.96204C18.6497 5.07037 18.7608 5.22651 18.8134 5.40546C19.2229 6.79844 19.3482 8.25953 19.1818 9.70189C19.0155 11.1443 18.5609 12.5385 17.8451 13.8017C17.1293 15.0649 16.1669 16.1714 15.0151 17.0553C13.8632 17.9392 12.5454 18.5826 11.14 18.9471C11.0029 18.9827 10.8589 18.9827 10.7217 18.9471C9.31621 18.5826 7.99834 17.9394 6.84639 17.0555C5.69444 16.1716 4.73193 15.0652 4.01605 13.8019C3.30017 12.5387 2.84553 11.1445 2.67915 9.70205C2.51277 8.25964 2.63804 6.7985 3.04753 5.40546C3.10012 5.22651 3.21123 5.07037 3.36307 4.96204C3.51491 4.85372 3.6987 4.79946 3.88503 4.80796C6.16625 4.91224 8.40425 4.16129 10.1609 2.70213L10.38 2.51463L10.46 2.45213C10.5162 2.4137 10.577 2.38235 10.6409 2.3588L10.7342 2.33046C10.7669 2.32257 10.8 2.31673 10.8334 2.31296L10.9292 2.30713ZM14.0209 8.38463C13.9435 8.30715 13.8516 8.24568 13.7504 8.20375C13.6492 8.16181 13.5408 8.14022 13.4313 8.14022C13.3218 8.14022 13.2133 8.16181 13.1122 8.20375C13.011 8.24568 12.9191 8.30715 12.8417 8.38463L10.0975 11.128L9.02003 10.0513L8.94169 9.98213C8.7742 9.85262 8.56369 9.79172 8.35292 9.8118C8.14215 9.83187 7.94693 9.93143 7.8069 10.0902C7.66687 10.249 7.59254 10.4552 7.599 10.6668C7.60547 10.8784 7.69224 11.0797 7.84169 11.2296L9.50836 12.8963L9.58669 12.9655C9.74703 13.0898 9.94724 13.1514 10.1498 13.1387C10.3523 13.126 10.5432 13.0398 10.6867 12.8963L14.02 9.56296L14.0892 9.48463C14.2136 9.32429 14.2752 9.12408 14.2624 8.92156C14.2497 8.71904 14.1635 8.52812 14.02 8.38463H14.0209Z" fill="#303030"/>
</g>
<defs>
<clipPath id="clip0_63_734">
<rect width="20" height="20" fill="white" transform="translate(0.931335 0.640503)"/>
</clipPath>
</defs>
</svg>
