<svg width="21" height="21" viewBox="0 0 21 21" fill="none" xmlns="http://www.w3.org/2000/svg">
<g clip-path="url(#clip0_63_769)">
<path d="M5.78219 4.73211C9.03052 2.42794 13.673 2.61628 16.6764 5.17878C19.7322 7.78461 20.1497 12.0438 17.6364 15.0929C15.268 17.9654 10.9989 18.9121 7.44386 17.4304L7.25052 17.3463L3.60469 18.1221L3.54219 18.1329L3.45052 18.1404L3.35636 18.1371L3.31969 18.1329L3.22802 18.1163L3.14052 18.0879L3.05719 18.0513L2.99386 18.0163L2.90386 17.9521L2.83636 17.8904L2.77552 17.8213L2.73136 17.7588L2.67719 17.6629L2.64219 17.5746L2.61636 17.4804L2.60552 17.4179L2.59802 17.3263L2.60136 17.2321L2.60552 17.1954L2.62219 17.1038L2.64052 17.0438L3.59886 14.1679L3.58052 14.1379C1.73886 11.0154 2.57302 7.14461 5.58969 4.87294L5.78136 4.73294L5.78219 4.73211Z" fill="#303030"/>
</g>
<defs>
<clipPath id="clip0_63_769">
<rect width="20" height="20" fill="white" transform="translate(0.931335 0.640503)"/>
</clipPath>
</defs>
</svg>
