<svg width="21" height="21" viewBox="0 0 21 21" fill="none" xmlns="http://www.w3.org/2000/svg">
<g clip-path="url(#clip0_63_774)">
<path d="M16.7647 3.1405C17.4024 3.14047 18.016 3.38411 18.4799 3.82157C18.9439 4.25904 19.2231 4.85726 19.2605 5.49384L19.2647 5.6405V15.6405C19.2647 16.2782 19.0211 16.8918 18.5836 17.3557C18.1462 17.8197 17.5479 18.0989 16.9114 18.1363L16.7647 18.1405H5.09802C4.46035 18.1405 3.84676 17.8969 3.38281 17.4594C2.91885 17.022 2.6396 16.4237 2.60219 15.7872L2.59802 15.6405V5.6405C2.59799 5.00283 2.84163 4.38924 3.27909 3.92529C3.71656 3.46133 4.31478 3.18208 4.95136 3.14467L5.09802 3.1405H16.7647ZM15.098 13.1405H6.76469L6.66719 13.1463C6.46465 13.1704 6.27798 13.268 6.14253 13.4205C6.00709 13.573 5.93228 13.7699 5.93228 13.9738C5.93228 14.1778 6.00709 14.3747 6.14253 14.5272C6.27798 14.6797 6.46465 14.7772 6.66719 14.8013L6.76469 14.8072H15.098L15.1955 14.8013C15.3981 14.7772 15.5847 14.6797 15.7202 14.5272C15.8556 14.3747 15.9304 14.1778 15.9304 13.9738C15.9304 13.7699 15.8556 13.573 15.7202 13.4205C15.5847 13.268 15.3981 13.1704 15.1955 13.1463L15.098 13.1405ZM15.098 9.80717H6.76469L6.66719 9.813C6.46465 9.83709 6.27798 9.93463 6.14253 10.0871C6.00709 10.2396 5.93228 10.4365 5.93228 10.6405C5.93228 10.8445 6.00709 11.0414 6.14253 11.1939C6.27798 11.3464 6.46465 11.4439 6.66719 11.468L6.76469 11.4738H15.098L15.1955 11.468C15.3981 11.4439 15.5847 11.3464 15.7202 11.1939C15.8556 11.0414 15.9304 10.8445 15.9304 10.6405C15.9304 10.4365 15.8556 10.2396 15.7202 10.0871C15.5847 9.93463 15.3981 9.83709 15.1955 9.813L15.098 9.80717ZM15.098 6.47384H6.76469L6.66719 6.47967C6.46465 6.50376 6.27798 6.6013 6.14253 6.75381C6.00709 6.90631 5.93228 7.1032 5.93228 7.30717C5.93228 7.51114 6.00709 7.70802 6.14253 7.86053C6.27798 8.01304 6.46465 8.11058 6.66719 8.13467L6.76469 8.1405H15.098L15.1955 8.13467C15.3981 8.11058 15.5847 8.01304 15.7202 7.86053C15.8556 7.70802 15.9304 7.51114 15.9304 7.30717C15.9304 7.1032 15.8556 6.90631 15.7202 6.75381C15.5847 6.6013 15.3981 6.50376 15.1955 6.47967L15.098 6.47384Z" fill="#303030"/>
</g>
<defs>
<clipPath id="clip0_63_774">
<rect width="20" height="20" fill="white" transform="translate(0.931335 0.640503)"/>
</clipPath>
</defs>
</svg>
