<svg width="32" height="32" viewBox="0 0 32 32" fill="none" xmlns="http://www.w3.org/2000/svg">
<rect width="32" height="32" rx="16" fill="#D111CA"/>
<g clip-path="url(#clip0_62_6837)">
<path d="M14 15.3333C14 15.8637 14.2107 16.3725 14.5858 16.7475C14.9609 17.1226 15.4696 17.3333 16 17.3333C16.5304 17.3333 17.0391 17.1226 17.4142 16.7475C17.7893 16.3725 18 15.8637 18 15.3333C18 14.8029 17.7893 14.2942 17.4142 13.9191C17.0391 13.544 16.5304 13.3333 16 13.3333C15.4696 13.3333 14.9609 13.544 14.5858 13.9191C14.2107 14.2942 14 14.8029 14 15.3333Z" stroke="white" stroke-width="1.5" stroke-linecap="round" stroke-linejoin="round"/>
<path d="M19.7713 19.1045L16.9427 21.9331C16.6927 22.1829 16.3537 22.3232 16.0003 22.3232C15.647 22.3232 15.308 22.1829 15.058 21.9331L12.2287 19.1045C11.4828 18.3586 10.9749 17.4083 10.7691 16.3737C10.5634 15.3392 10.669 14.2668 11.0727 13.2923C11.4764 12.3178 12.1599 11.4848 13.037 10.8988C13.9141 10.3128 14.9452 10 16 10C17.0548 10 18.086 10.3128 18.963 10.8988C19.8401 11.4848 20.5237 12.3178 20.9273 13.2923C21.331 14.2668 21.4366 15.3392 21.2309 16.3737C21.0251 17.4083 20.5172 18.3586 19.7713 19.1045Z" stroke="white" stroke-width="1.5" stroke-linecap="round" stroke-linejoin="round"/>
</g>
<defs>
<clipPath id="clip0_62_6837">
<rect width="16" height="16" fill="white" transform="translate(8 8)"/>
</clipPath>
</defs>
</svg>
