<svg width="32" height="32" viewBox="0 0 32 32" fill="none" xmlns="http://www.w3.org/2000/svg">
<rect width="32" height="32" rx="16" fill="#D111CA"/>
<g clip-path="url(#clip0_62_6829)">
<path d="M11.3333 10.6667H14L15.3333 14L13.6667 15C14.3806 16.4477 15.5523 17.6194 17 18.3334L18 16.6667L21.3333 18V20.6667C21.3333 21.0203 21.1929 21.3594 20.9428 21.6095C20.6928 21.8595 20.3536 22 20 22C17.3995 21.842 14.9468 20.7377 13.1046 18.8955C11.2623 17.0533 10.158 14.6005 10 12C10 11.6464 10.1405 11.3073 10.3905 11.0572C10.6406 10.8072 10.9797 10.6667 11.3333 10.6667Z" stroke="white" stroke-width="1.5" stroke-linecap="round" stroke-linejoin="round"/>
<path d="M18 12.6667C18.3536 12.6667 18.6928 12.8072 18.9428 13.0572C19.1929 13.3073 19.3333 13.6464 19.3333 14" stroke="white" stroke-width="1.5" stroke-linecap="round" stroke-linejoin="round"/>
<path d="M18 10C19.0609 10 20.0783 10.4214 20.8284 11.1716C21.5786 11.9217 22 12.9391 22 14" stroke="white" stroke-width="1.5" stroke-linecap="round" stroke-linejoin="round"/>
</g>
<defs>
<clipPath id="clip0_62_6829">
<rect width="16" height="16" fill="white" transform="translate(8 8)"/>
</clipPath>
</defs>
</svg>
