<svg width="204" height="35" viewBox="0 0 204 35" fill="none" xmlns="http://www.w3.org/2000/svg">
<path d="M204 18.8473C204 19.2982 203.97 19.704 203.91 20.0647H194.779C194.855 20.9665 195.17 21.6729 195.726 22.1839C196.282 22.6949 196.966 22.9504 197.778 22.9504C198.95 22.9504 199.784 22.4469 200.28 21.4399H203.685C203.324 22.6423 202.632 23.6343 201.61 24.4158C200.588 25.1823 199.333 25.5656 197.846 25.5656C196.643 25.5656 195.561 25.3026 194.599 24.7765C193.652 24.2355 192.908 23.4765 192.367 22.4995C191.841 21.5226 191.578 20.3954 191.578 19.1178C191.578 17.8253 191.841 16.6905 192.367 15.7136C192.893 14.7367 193.63 13.9852 194.577 13.4591C195.523 12.9331 196.613 12.6701 197.846 12.6701C199.033 12.6701 200.092 12.9256 201.024 13.4366C201.971 13.9476 202.7 14.6765 203.211 15.6234C203.737 16.5553 204 17.6299 204 18.8473ZM200.731 17.9455C200.716 17.1339 200.423 16.4876 199.852 16.0067C199.281 15.5107 198.582 15.2627 197.755 15.2627C196.974 15.2627 196.312 15.5032 195.771 15.9841C195.245 16.4501 194.922 17.1038 194.802 17.9455H200.731Z" fill="#FEFFFD"/>
<path d="M184.885 25.5656C183.862 25.5656 182.946 25.3852 182.134 25.0245C181.322 24.6488 180.676 24.1453 180.195 23.514C179.729 22.8828 179.474 22.1839 179.429 21.4174H182.608C182.668 21.8983 182.901 22.2966 183.306 22.6123C183.727 22.9279 184.246 23.0857 184.862 23.0857C185.463 23.0857 185.929 22.9654 186.26 22.725C186.605 22.4845 186.778 22.1764 186.778 21.8006C186.778 21.3948 186.568 21.0942 186.147 20.8989C185.741 20.6884 185.087 20.463 184.186 20.2225C183.254 19.9971 182.487 19.7641 181.886 19.5236C181.3 19.2832 180.789 18.9149 180.353 18.419C179.932 17.923 179.722 17.2541 179.722 16.4125C179.722 15.7211 179.917 15.0899 180.308 14.5187C180.714 13.9476 181.285 13.4967 182.021 13.1661C182.773 12.8354 183.652 12.6701 184.659 12.6701C186.147 12.6701 187.334 13.0458 188.221 13.7973C189.108 14.5338 189.596 15.5332 189.687 16.7957H186.666C186.62 16.2998 186.41 15.909 186.034 15.6234C185.674 15.3228 185.185 15.1725 184.569 15.1725C183.998 15.1725 183.554 15.2777 183.239 15.4882C182.938 15.6986 182.788 15.9916 182.788 16.3674C182.788 16.7882 182.998 17.1114 183.419 17.3368C183.84 17.5472 184.494 17.7652 185.38 17.9906C186.282 18.2161 187.026 18.449 187.612 18.6895C188.199 18.93 188.702 19.3057 189.123 19.8167C189.559 20.3127 189.784 20.974 189.799 21.8006C189.799 22.5221 189.596 23.1684 189.191 23.7395C188.8 24.3106 188.229 24.7615 187.477 25.0922C186.741 25.4078 185.876 25.5656 184.885 25.5656Z" fill="#FEFFFD"/>
<path d="M176.986 8.67969V25.3627H173.83V8.67969H176.986Z" fill="#FEFFFD"/>
<path d="M170.716 12.873V25.3627H167.537V23.7846C167.131 24.3256 166.598 24.754 165.937 25.0696C165.29 25.3702 164.584 25.5205 163.817 25.5205C162.84 25.5205 161.976 25.3176 161.225 24.9118C160.473 24.491 159.88 23.8823 159.444 23.0857C159.023 22.2741 158.812 21.3122 158.812 20.2V12.873H161.969V19.7491C161.969 20.7411 162.217 21.5076 162.713 22.0486C163.209 22.5747 163.885 22.8377 164.742 22.8377C165.613 22.8377 166.297 22.5747 166.793 22.0486C167.289 21.5076 167.537 20.7411 167.537 19.7491V12.873H170.716Z" fill="#FEFFFD"/>
<path d="M156.684 14.4962C156.684 15.3379 156.481 16.1269 156.075 16.8634C155.685 17.5998 155.061 18.1935 154.204 18.6444C153.363 19.0953 152.296 19.3207 151.003 19.3207H148.365V25.3627H145.209V9.62656H151.003C152.22 9.62656 153.257 9.83697 154.114 10.2578C154.971 10.6786 155.61 11.2573 156.03 11.9937C156.466 12.7302 156.684 13.5643 156.684 14.4962ZM150.868 16.7732C151.739 16.7732 152.386 16.5778 152.807 16.187C153.227 15.7812 153.438 15.2176 153.438 14.4962C153.438 12.9632 152.581 12.1966 150.868 12.1966H148.365V16.7732H150.868Z" fill="#FEFFFD"/>
<path d="M140.143 15.4656V21.5076C140.143 21.9284 140.241 22.2365 140.436 22.4319C140.647 22.6122 140.992 22.7024 141.473 22.7024H142.939V25.3627H140.955C138.295 25.3627 136.965 24.0701 136.965 21.485V15.4656H135.477V12.873H136.965V9.78436H140.143V12.873H142.939V15.4656H140.143Z" fill="#FEFFFD"/>
<path d="M134.165 18.8473C134.165 19.2982 134.135 19.704 134.075 20.0647H124.944C125.02 20.9665 125.335 21.6729 125.891 22.1839C126.447 22.6949 127.131 22.9504 127.943 22.9504C129.115 22.9504 129.949 22.4469 130.445 21.4399H133.85C133.489 22.6423 132.798 23.6343 131.776 24.4158C130.753 25.1823 129.499 25.5656 128.011 25.5656C126.808 25.5656 125.726 25.3026 124.764 24.7765C123.817 24.2355 123.073 23.4765 122.532 22.4995C122.006 21.5226 121.743 20.3954 121.743 19.1178C121.743 17.8253 122.006 16.6905 122.532 15.7136C123.058 14.7367 123.795 13.9852 124.742 13.4591C125.688 12.9331 126.778 12.6701 128.011 12.6701C129.198 12.6701 130.258 12.9256 131.189 13.4366C132.136 13.9476 132.865 14.6765 133.376 15.6234C133.902 16.5553 134.165 17.6299 134.165 18.8473ZM130.896 17.9455C130.881 17.1339 130.588 16.4876 130.017 16.0067C129.446 15.5107 128.747 15.2627 127.92 15.2627C127.139 15.2627 126.478 15.5032 125.936 15.9841C125.41 16.4501 125.087 17.1038 124.967 17.9455H130.896Z" fill="#FEFFFD"/>
<path d="M116.783 25.3627L112.545 20.0422V25.3627H109.389V8.67969H112.545V18.171L116.738 12.873H120.841L115.34 19.1404L120.886 25.3627H116.783Z" fill="#FEFFFD"/>
<path d="M103.431 14.8118C103.836 14.1505 104.363 13.632 105.009 13.2562C105.67 12.8805 106.422 12.6926 107.263 12.6926V16.0067H106.429C105.437 16.0067 104.686 16.2396 104.175 16.7056C103.679 17.1715 103.431 17.9831 103.431 19.1404V25.3627H100.274V12.873H103.431V14.8118Z" fill="#FEFFFD"/>
<path d="M84.1826 19.0727C84.1826 17.8102 84.4306 16.6905 84.9266 15.7136C85.4376 14.7367 86.1215 13.9852 86.9781 13.4591C87.8499 12.9331 88.8193 12.6701 89.8864 12.6701C90.8182 12.6701 91.6299 12.8579 92.3212 13.2337C93.0276 13.6094 93.5912 14.0829 94.0121 14.654V12.873H97.1909V25.3627H94.0121V23.5366C93.6063 24.1227 93.0427 24.6112 92.3212 25.002C91.6148 25.3777 90.7957 25.5656 89.8639 25.5656C88.8118 25.5656 87.8499 25.2951 86.9781 24.754C86.1215 24.2129 85.4376 23.4539 84.9266 22.477C84.4306 21.485 84.1826 20.3503 84.1826 19.0727ZM94.0121 19.1178C94.0121 18.3513 93.8618 17.6975 93.5612 17.1565C93.2606 16.6004 92.8548 16.1795 92.3438 15.894C91.8328 15.5934 91.2842 15.4431 90.698 15.4431C90.1119 15.4431 89.5708 15.5858 89.0748 15.8714C88.5788 16.157 88.173 16.5778 87.8574 17.1339C87.5568 17.675 87.4065 18.3213 87.4065 19.0727C87.4065 19.8242 87.5568 20.4855 87.8574 21.0567C88.173 21.6128 88.5788 22.0411 89.0748 22.3417C89.5858 22.6423 90.1269 22.7926 90.698 22.7926C91.2842 22.7926 91.8328 22.6498 92.3438 22.3643C92.8548 22.0637 93.2606 21.6428 93.5612 21.1018C93.8618 20.5457 94.0121 19.8844 94.0121 19.1178Z" fill="#FEFFFD"/>
<path d="M81.8742 9.62656V25.3627H78.718V15.1274L74.5021 25.3627H72.1124L67.874 15.1274V25.3627H64.7178V9.62656H68.3024L73.3073 21.3272L78.3122 9.62656H81.8742Z" fill="#FEFFFD"/>
<path d="M37.3405 0.0373535V34.2866H30.471V12.0099L21.2954 34.2866H16.0942L6.86947 12.0099V34.2866H0V0.0373535H7.80176L18.6948 25.5035L29.5878 0.0373535H37.3405Z" fill="#FEFFFD"/>
<path d="M55.3241 10.5986C55.3241 12.4305 54.8825 14.1478 53.9993 15.7507C53.1488 17.3536 51.7912 18.6457 49.9266 19.6271C48.0948 20.6084 45.7722 21.0991 42.959 21.0991H37.2181V34.2492H30.3486V0H42.959C45.6087 0 47.8658 0.457965 49.7304 1.37389C51.5949 2.28982 52.9852 3.54923 53.9011 5.1521C54.8498 6.75498 55.3241 8.57049 55.3241 10.5986ZM42.6646 15.5545C44.5619 15.5545 45.9685 15.1292 46.8844 14.2787C47.8004 13.3955 48.2583 12.1688 48.2583 10.5986C48.2583 7.26201 46.3938 5.59371 42.6646 5.59371H37.2181V15.5545H42.6646Z" fill="#FEFFFD"/>
</svg>
