<svg width="21" height="20" viewBox="0 0 21 20" fill="none" xmlns="http://www.w3.org/2000/svg">
<g clip-path="url(#clip0_35_2804)">
<path d="M13.3981 1.66669C14.0358 1.66665 14.6494 1.91029 15.1133 2.34776C15.5773 2.78522 15.8565 3.38344 15.8939 4.02002L15.8981 4.16669V15.8334C15.8981 16.471 15.6545 17.0846 15.217 17.5486C14.7796 18.0125 14.1814 18.2918 13.5448 18.3292L13.3981 18.3334H6.73145C6.09377 18.3334 5.48018 18.0898 5.01623 17.6523C4.55227 17.2148 4.27302 16.6166 4.23561 15.98L4.23145 15.8334V4.16669C4.23141 3.52901 4.47505 2.91542 4.91251 2.45147C5.34998 1.98751 5.9482 1.70826 6.58478 1.67085L6.73145 1.66669H13.3981ZM10.0648 13.3334C9.86067 13.3334 9.66366 13.4083 9.51113 13.544C9.35861 13.6796 9.26116 13.8665 9.23728 14.0692L9.23145 14.1667L9.23728 14.2725C9.26137 14.4751 9.35891 14.6617 9.51142 14.7972C9.66392 14.9326 9.86081 15.0074 10.0648 15.0074C10.2687 15.0074 10.4656 14.9326 10.6181 14.7972C10.7706 14.6617 10.8682 14.4751 10.8923 14.2725L10.8981 14.175L10.8923 14.0692C10.8684 13.8665 10.771 13.6796 10.6184 13.544C10.4659 13.4083 10.2689 13.3334 10.0648 13.3334ZM10.8981 3.33335H9.23145L9.13395 3.33919C8.9314 3.36328 8.74473 3.46082 8.60929 3.61332C8.47385 3.76583 8.39904 3.96272 8.39904 4.16669C8.39904 4.37066 8.47385 4.56754 8.60929 4.72005C8.74473 4.87256 8.9314 4.9701 9.13395 4.99419L9.23145 5.00002H10.8981L10.9956 4.99419C11.1982 4.9701 11.3848 4.87256 11.5203 4.72005C11.6557 4.56754 11.7305 4.37066 11.7305 4.16669C11.7305 3.96272 11.6557 3.76583 11.5203 3.61332C11.3848 3.46082 11.1982 3.36328 10.9956 3.33919L10.8981 3.33335Z" fill="#FEFFFD"/>
</g>
<defs>
<clipPath id="clip0_35_2804">
<rect width="20" height="20" fill="white" transform="translate(0.0648193)"/>
</clipPath>
</defs>
</svg>
