<svg width="75" height="75" viewBox="0 0 75 75" fill="none" xmlns="http://www.w3.org/2000/svg">
<circle cx="37.5146" cy="37.2906" r="32" transform="rotate(-10 37.5146 37.2906)" fill="#FEFFFD"/>
<path d="M48.7794 26.4948C48.7147 23.5987 47.9507 21.795 46.131 20.3266C44.1288 18.6668 40.9611 18.4052 37.0687 19.0916L25.8959 21.0617C25.103 21.2015 24.5562 21.8943 24.5523 22.7151L25.0941 53.1859C25.124 53.7771 25.6457 54.2069 26.2224 54.1053L33.1423 52.8851L33.1732 56.0108C33.1904 56.5297 33.6273 56.8999 34.2039 56.7983L40.0426 55.7687C40.7635 55.6416 41.2509 55.0338 41.2082 54.3704L41.0822 46.4901C41.0395 45.8266 41.599 45.2061 42.2478 45.0917L43.1128 44.9392C48.7352 43.9478 52.7964 40.846 52.9209 33.9653C52.941 31.1287 52.3041 28.7808 50.5819 27.4444C50.0602 27.0145 49.4919 26.7419 48.7794 26.4948Z" fill="#009CDE"/>
<path d="M48.7794 26.4948C48.7147 23.5987 47.9507 21.795 46.131 20.3266C44.1288 18.6668 40.9611 18.4052 37.0687 19.0916L25.8959 21.0617C25.103 21.2015 24.5562 21.8943 24.5523 22.7151L25.0941 53.1859C25.124 53.7771 25.6457 54.2069 26.2224 54.1052L33.1423 52.8851L32.9133 41.8917C32.9173 41.071 33.464 40.3781 34.2569 40.2383L37.5727 39.6537C44.0602 38.5098 48.647 35.0171 48.7372 27.0987C48.7838 26.9413 48.7455 26.7244 48.7794 26.4948Z" fill="#012169"/>
<path d="M32.7177 29.4015C32.7005 28.8826 33.2345 28.1175 33.8833 28.0031L42.6774 26.4525C43.6865 26.2745 44.7084 26.1689 45.5989 26.161C46.4173 26.1658 47.9227 26.2731 48.72 26.5798C48.6553 23.6837 47.8913 21.88 46.0716 20.4117C44.1288 18.6668 40.9611 18.4052 37.0687 19.0916L25.8959 21.0617C25.103 21.2015 24.5562 21.8943 24.5523 22.7151L25.0941 53.1859C25.124 53.7771 25.6457 54.2069 26.2224 54.1052L33.1423 52.8851L32.7177 29.4015Z" fill="#003087"/>
</svg>
