<svg width="55" height="53" viewBox="0 0 55 53" fill="none" xmlns="http://www.w3.org/2000/svg">
<path d="M5.63567 4.962C6.11518 2.24253 8.70847 0.426689 11.4279 0.906205L50.8203 7.85213C53.5397 8.33165 55.3556 10.9249 54.8761 13.6444L50.1007 40.7266C49.6212 43.4461 47.0279 45.2619 44.3084 44.7824L27.0743 41.7436L26.2061 46.6676L33.5921 47.97C34.9519 48.2097 35.8598 49.5064 35.62 50.8661C35.3803 52.2259 34.0836 53.1338 32.7239 52.894L13.0277 49.4211C11.668 49.1813 10.7601 47.8846 10.9998 46.5249C11.2396 45.1652 12.5362 44.2573 13.896 44.497L21.282 45.7994L22.1503 40.8753L4.91614 37.8365C2.19667 37.357 0.380824 34.7637 0.86034 32.0442L5.63567 4.962ZM45.1767 39.8584L49.952 12.7762L10.5597 5.83024L5.78438 32.9125L45.1767 39.8584Z" fill="#FEFFFD"/>
</svg>
