<svg width="36" height="49" viewBox="0 0 36 49" fill="none" xmlns="http://www.w3.org/2000/svg">
<path d="M0.189042 10.2163C-0.290475 7.4968 1.52537 4.90351 4.24484 4.424L23.941 0.951032C26.6605 0.471516 29.2538 2.28736 29.7333 5.00683L35.811 39.4751C36.2905 42.1946 34.4746 44.7879 31.7552 45.2674L12.059 48.7403C9.33954 49.2199 6.74624 47.404 6.26673 44.6845L0.189042 10.2163ZM24.8092 5.87507L5.11308 9.34803L11.1908 43.8163L30.8869 40.3433L24.8092 5.87507Z" fill="#FEFFFD"/>
<path d="M22.6326 36.7217C22.8724 38.0814 21.9645 39.378 20.6047 39.6178C19.245 39.8576 17.9483 38.9496 17.7086 37.5899C17.4688 36.2302 18.3767 34.9335 19.7365 34.6938C21.0962 34.454 22.3929 35.3619 22.6326 36.7217Z" fill="#FEFFFD"/>
</svg>
