<svg width="56" height="52" viewBox="0 0 56 52" fill="none" xmlns="http://www.w3.org/2000/svg">
<path d="M12.2109 0.291642C9.49143 -0.187874 6.89814 1.62797 6.41862 4.34744L4.24802 16.6575L0.340938 38.8157C-0.138578 41.5352 1.67727 44.1285 4.39674 44.608L43.789 51.5539C46.5085 52.0334 49.1018 50.2176 49.5813 47.4981L53.4884 25.3399L55.659 13.0298C56.1385 10.3104 54.3227 7.71708 51.6032 7.23757L12.2109 0.291642ZM50.735 12.1616L48.9985 22.0097L9.60618 15.0638L11.3427 5.21568L50.735 12.1616ZM8.73794 19.9878L48.1302 26.9337L44.6573 46.6299L5.26498 39.684L8.73794 19.9878ZM25.2465 12.7444C25.0068 14.1042 23.7101 15.0121 22.3504 14.7723C20.9907 14.5326 20.0827 13.2359 20.3225 11.8762C20.5623 10.5165 21.8589 9.60854 23.2186 9.8483C24.5784 10.0881 25.4863 11.3847 25.2465 12.7444ZM14.9643 13.47C16.3241 13.7097 17.6207 12.8018 17.8605 11.4421C18.1002 10.0823 17.1923 8.7857 15.8326 8.54594C14.4728 8.30618 13.1762 9.2141 12.9364 10.5738C12.6967 11.9336 13.6046 13.2302 14.9643 13.47Z" fill="#FEFFFD"/>
</svg>
