<svg width="21" height="20" viewBox="0 0 21 20" fill="none" xmlns="http://www.w3.org/2000/svg">
<g clip-path="url(#clip0_35_2792)">
<path d="M3.39725 9.16669C3.60965 9.16692 3.81394 9.24825 3.96839 9.39406C4.12284 9.53987 4.21578 9.73915 4.22823 9.95118C4.24067 10.1632 4.17169 10.372 4.03536 10.5349C3.89904 10.6978 3.70566 10.8024 3.49475 10.8275L3.39725 10.8334H2.56392C2.35152 10.8331 2.14722 10.7518 1.99278 10.606C1.83833 10.4602 1.74539 10.2609 1.73294 10.0489C1.72049 9.83682 1.78948 9.62804 1.9258 9.46516C2.06213 9.30228 2.2555 9.19761 2.46642 9.17252L2.56392 9.16669H3.39725Z" fill="#FEFFFD"/>
<path d="M10.0648 1.66669C10.2689 1.66671 10.4659 1.74165 10.6184 1.87728C10.771 2.01292 10.8684 2.19981 10.8923 2.40252L10.8981 2.50002V3.33335C10.8979 3.54575 10.8165 3.75005 10.6707 3.90449C10.5249 4.05894 10.3257 4.15188 10.1136 4.16433C9.90158 4.17678 9.6928 4.10779 9.52992 3.97147C9.36704 3.83514 9.26236 3.64177 9.23728 3.43085L9.23145 3.33335V2.50002C9.23145 2.27901 9.31924 2.06705 9.47552 1.91076C9.6318 1.75448 9.84376 1.66669 10.0648 1.66669Z" fill="#FEFFFD"/>
<path d="M17.5639 9.16669C17.7763 9.16692 17.9806 9.24825 18.1351 9.39406C18.2895 9.53987 18.3825 9.73915 18.3949 9.95118C18.4074 10.1632 18.3384 10.372 18.202 10.5349C18.0657 10.6978 17.8723 10.8024 17.6614 10.8275L17.5639 10.8334H16.7306C16.5182 10.8331 16.3139 10.7518 16.1595 10.606C16.005 10.4602 15.9121 10.2609 15.8996 10.0489C15.8872 9.83682 15.9562 9.62804 16.0925 9.46516C16.2288 9.30228 16.4222 9.19761 16.6331 9.17252L16.7306 9.16669H17.5639Z" fill="#FEFFFD"/>
<path d="M4.1434 4.07785C4.2869 3.93437 4.47781 3.84818 4.68034 3.83544C4.88286 3.82271 5.08307 3.88431 5.2434 4.00869L5.32174 4.07785L5.90507 4.66119C6.05453 4.81115 6.1413 5.01238 6.14776 5.22401C6.15422 5.43563 6.07989 5.64178 5.93986 5.80058C5.79983 5.95939 5.60461 6.05894 5.39384 6.07902C5.18307 6.0991 4.97256 6.0382 4.80507 5.90869L4.72674 5.83952L4.1434 5.25619C3.98718 5.09991 3.89941 4.88799 3.89941 4.66702C3.89941 4.44605 3.98718 4.23413 4.1434 4.07785Z" fill="#FEFFFD"/>
<path d="M14.8074 4.07773C14.9574 3.92828 15.1586 3.84151 15.3702 3.83504C15.5819 3.82858 15.788 3.90291 15.9468 4.04294C16.1056 4.18297 16.2052 4.37819 16.2253 4.58896C16.2453 4.79973 16.1844 5.01024 16.0549 5.17773L15.9858 5.25607L15.4024 5.8394C15.2525 5.98886 15.0512 6.07563 14.8396 6.08209C14.628 6.08855 14.4218 6.01422 14.263 5.87419C14.1042 5.73417 14.0047 5.53894 13.9846 5.32817C13.9645 5.1174 14.0254 4.90689 14.1549 4.7394L14.2241 4.66107L14.8074 4.07773Z" fill="#FEFFFD"/>
<path d="M11.7315 15C11.9525 15 12.1645 15.0878 12.3207 15.2441C12.477 15.4004 12.5648 15.6123 12.5648 15.8333C12.5648 16.4964 12.3014 17.1323 11.8326 17.6011C11.3637 18.0699 10.7279 18.3333 10.0648 18.3333C9.40178 18.3333 8.76589 18.0699 8.29705 17.6011C7.82821 17.1323 7.56482 16.4964 7.56482 15.8333C7.56485 15.6292 7.63978 15.4322 7.77542 15.2797C7.91105 15.1272 8.09794 15.0297 8.30065 15.0058L8.39815 15H11.7315Z" fill="#FEFFFD"/>
<path d="M10.0648 5C11.1142 5 12.137 5.33019 12.9884 5.94379C13.8397 6.55739 14.4764 7.4233 14.8082 8.41886C15.1401 9.41442 15.1503 10.4892 14.8374 11.4908C14.5245 12.4925 13.9043 13.3704 13.0648 14C12.95 14.0863 12.8148 14.1414 12.6723 14.16L12.5648 14.1667H7.56482C7.38451 14.1667 7.20907 14.1082 7.06482 14C6.22529 13.3704 5.60515 12.4925 5.29225 11.4908C4.97935 10.4892 4.98955 9.41442 5.3214 8.41886C5.65326 7.4233 6.28994 6.55739 7.14127 5.94379C7.9926 5.33019 9.01541 5 10.0648 5Z" fill="#FEFFFD"/>
</g>
<defs>
<clipPath id="clip0_35_2792">
<rect width="20" height="20" fill="white" transform="translate(0.0648193)"/>
</clipPath>
</defs>
</svg>
