<svg width="28" height="29" viewBox="0 0 28 29" fill="none" xmlns="http://www.w3.org/2000/svg">
<g clip-path="url(#clip0_2034_396)">
<path d="M10.9337 9.07851C10.7495 10.1233 10.9878 11.1984 11.5963 12.0674C12.2048 12.9364 13.1336 13.5281 14.1783 13.7123C15.2231 13.8966 16.2982 13.6582 17.1672 13.0497C18.0363 12.4412 18.6279 11.5124 18.8122 10.4677C18.9964 9.42295 18.758 8.34781 18.1495 7.4788C17.5411 6.60979 16.6123 6.01809 15.5675 5.83387C14.5228 5.64966 13.4476 5.88801 12.5786 6.4965C11.7096 7.10499 11.1179 8.03376 10.9337 9.07851Z" stroke="#303030" stroke-width="1.5" stroke-linecap="round" stroke-linejoin="round"/>
<path d="M6.533 22.5185L6.8803 20.5489C7.06451 19.5041 7.65621 18.5753 8.52522 17.9668C9.39423 17.3583 10.4694 17.12 11.5141 17.3042L15.4534 17.9988" stroke="#303030" stroke-width="1.5" stroke-linecap="round" stroke-linejoin="round"/>
<path d="M15.7435 22.1117L17.3658 24.4286L21.9997 21.184" stroke="#303030" stroke-width="1.5" stroke-linecap="round" stroke-linejoin="round"/>
</g>
<defs>
<clipPath id="clip0_2034_396">
<rect width="24" height="24" fill="white" transform="translate(4.27075 0.795654) rotate(10)"/>
</clipPath>
</defs>
</svg>
