<svg width="75" height="75" viewBox="0 0 75 75" fill="none" xmlns="http://www.w3.org/2000/svg">
<path d="M6.23399 43.3736C3.16508 25.969 14.7865 9.3719 32.1911 6.303C49.5957 3.2341 66.1928 14.8555 69.2617 32.2601C72.3306 49.6647 60.7092 66.2618 43.3046 69.3307C25.9 72.3996 9.30289 60.7782 6.23399 43.3736Z" fill="#FEFFFD"/>
<path d="M11.7967 27.8741L12.0331 29.2152L17.0718 29.1226C20.6419 29.057 23.902 31.1743 25.3193 34.4792L35.3686 57.9124C35.6173 58.4924 36.2287 58.8252 36.8457 58.7164L44.8991 57.2964C45.4304 57.2027 45.8546 56.7997 45.9783 56.271L54.1486 21.3716C54.26 20.8955 53.8509 20.4589 53.3725 20.5432L45.9525 21.8516C45.4167 21.946 44.9903 22.355 44.8704 22.8893L39.4984 46.8413L32.2852 27.6416C31.5945 25.8031 29.7036 24.7167 27.7836 25.0552L11.7967 27.8741Z" fill="#172A73"/>
</svg>
