<svg width="76" height="75" viewBox="0 0 76 75" fill="none" xmlns="http://www.w3.org/2000/svg">
<circle cx="38.0034" cy="37.3081" r="32" transform="rotate(-10 38.0034 37.3081)" fill="#FEFFFD"/>
<path d="M33.9272 14.817C37.4395 14.1977 40.9253 14.4256 44.1817 15.3585C44.69 15.491 45.2088 15.6654 45.7231 15.8409L43.993 18.0529L40.3419 15.3712L35.8644 21.0375L32.1376 18.1915L23.9251 28.7292L31.3989 34.5498L29.3368 37.1298L36.7269 42.9652L34.6644 45.5443L45.2256 53.8358L49.5994 48.0984L55.0523 52.4589C54.2733 53.3058 53.4096 54.1689 52.446 54.9585C49.5158 57.3815 45.9348 59.1192 41.9087 59.8291C29.5278 62.0122 17.6813 53.6839 15.4902 41.2577C13.2703 28.9233 21.5477 16.9998 33.9272 14.817ZM33.5371 36.6558L38.0426 30.8952L43.7891 35.424L39.2824 41.1843L33.5371 36.6558ZM38.9884 45.2718L43.4429 39.4763L49.2315 43.9972L44.7258 49.758L38.9884 45.2718ZM28.112 28.1689L32.6159 22.4086L38.3613 26.9376L33.8555 32.698L28.112 28.1689ZM37.4645 23.8587L40.8118 19.5443L45.1161 22.9089L41.7763 27.2659L37.4645 23.8587ZM47.4953 39.1599L50.8412 34.8456L55.1527 38.252L51.8056 42.5688L47.4953 39.1599ZM52.4406 46.6686L55.7879 42.3533L60.0891 45.7182L56.7506 50.0746L52.4406 46.6686ZM50.793 27.8044L53.0239 24.9279L55.8922 27.1721L53.6616 30.0477L50.793 27.8044ZM45.9633 20.4536L48.1869 17.5348L51.0643 19.8202L48.8313 22.6969L45.9633 20.4536ZM55.5795 35.1636L57.8104 32.2873L60.7221 34.523L58.4489 37.406L55.5795 35.1636ZM42.5745 31.2936L45.9219 26.979L50.2243 30.343L46.8788 34.658L42.5745 31.2936Z" fill="#036CB5"/>
</svg>
