<svg width="21" height="20" fill="none" xmlns="http://www.w3.org/2000/svg"><g clip-path="url(#a)" fill="#FEFFFD"><path d="M12.748 7.812a.833.833 0 0 1 1.161-.137l.078.069 3.334 3.333c.13.13.212.299.236.48l.008.11v4.166a.833.833 0 0 1-.736.827l-.098.006H3.38l-.092-.007-.092-.017-.089-.028-.087-.038-.084-.05-.078-.058-.05-.046-.06-.068-.053-.074-.045-.08-.014-.03-.033-.085-.022-.089-.013-.09-.003-.091.007-.092.016-.088a.885.885 0 0 1 .03-.093l.038-.087.049-.084 3.333-5a.833.833 0 0 1 .971-.325l.095.042 2.73 1.365 2.913-3.64h.001Z"/><path d="M12.758 2.8a.833.833 0 0 1 1.152-.125l.077.07 3.334 3.333a.833.833 0 0 1-1.1 1.247l-.079-.069-2.688-2.687-3.582 4.298a.833.833 0 0 1-.917.252l-.096-.04-2.712-1.355L4.065 10.5a.833.833 0 0 1-1.08.224l-.087-.057a.834.834 0 0 1-.224-1.08l.058-.087 2.5-3.333a.833.833 0 0 1 .947-.284l.092.039 2.742 1.37L12.758 2.8Z"/></g><defs><clipPath id="a"><path fill="#fff" transform="translate(.065)" d="M0 0h20v20H0z"/></clipPath></defs></svg>