<svg width="21" height="21" fill="none" xmlns="http://www.w3.org/2000/svg"><g clip-path="url(#a)" fill="#303030"><path d="M5.931 3.14a.833.833 0 0 1 .828.736l.006.098v.833A1.667 1.667 0 0 1 8.427 6.35l.004.125v2.5a1.667 1.667 0 0 1-1.541 1.662l-.125.005v6.666a.833.833 0 0 1-1.661.098l-.006-.098v-6.666a1.667 1.667 0 0 1-1.662-1.542l-.005-.125v-2.5A1.667 1.667 0 0 1 4.973 4.81l.125-.004v-.833a.833.833 0 0 1 .833-.834ZM10.931 3.14a.834.834 0 0 1 .828.736l.006.098v7.5a1.667 1.667 0 0 1 1.662 1.541l.004.125v2.5a1.666 1.666 0 0 1-1.541 1.663l-.125.004a.834.834 0 0 1-1.661.098l-.006-.098-.125-.004a1.667 1.667 0 0 1-1.537-1.532l-.005-.13v-2.5a1.667 1.667 0 0 1 1.542-1.663l.125-.004v-7.5a.833.833 0 0 1 .833-.834ZM15.931 3.14a.834.834 0 0 1 .828.736l.006.098a1.667 1.667 0 0 1 1.662 1.542l.004.125v3.333a1.666 1.666 0 0 1-1.541 1.662l-.125.005v6.666a.834.834 0 0 1-1.661.098l-.006-.098v-6.666a1.667 1.667 0 0 1-1.663-1.542l-.004-.125V5.64a1.667 1.667 0 0 1 1.542-1.663l.125-.004a.833.833 0 0 1 .833-.834Z"/></g><defs><clipPath id="a"><path fill="#fff" transform="translate(.931 .64)" d="M0 0h20v20H0z"/></clipPath></defs></svg>