<svg width="21" height="21" fill="none" xmlns="http://www.w3.org/2000/svg"><g clip-path="url(#a)"><path d="M15.098 2.307A1.667 1.667 0 0 1 16.76 3.85l.005.125V5.64a5.83 5.83 0 0 1-2.828 5 5.828 5.828 0 0 1 2.824 4.774l.004.226v1.667a1.667 1.667 0 0 1-1.542 1.663l-.125.004H6.765a1.667 1.667 0 0 1-1.663-1.542l-.004-.125v-1.666a5.83 5.83 0 0 1 2.828-5 5.828 5.828 0 0 1-2.824-4.774l-.004-.227V3.974A1.667 1.667 0 0 1 6.64 2.31l.125-.004h8.333Z" fill="#303030"/></g><defs><clipPath id="a"><path fill="#fff" transform="translate(.931 .64)" d="M0 0h20v20H0z"/></clipPath></defs></svg>