<svg width="21" height="21" fill="none" xmlns="http://www.w3.org/2000/svg"><g clip-path="url(#a)" fill="#303030"><path d="M5.09 11.358a5.917 5.917 0 0 0 10.142 3.27 1.629 1.629 0 0 1-.13-.53l-.004-.125.004-.125a1.667 1.667 0 1 1 1.474 1.781 7.583 7.583 0 0 1-13.137-4.041.833.833 0 0 1 1.65-.23Z"/><path d="M10.931 7.307a3.333 3.333 0 1 1-3.329 3.5l-.004-.167.004-.166a3.333 3.333 0 0 1 3.33-3.167Z"/><path d="M11.883 3.215a7.583 7.583 0 0 1 6.54 6.477.833.833 0 0 1-1.65.23 5.916 5.916 0 0 0-5.104-5.054 5.913 5.913 0 0 0-5.04 1.78 1.667 1.667 0 1 1-3.193.783l-.005-.124.005-.125A1.667 1.667 0 0 1 5.282 5.65a7.578 7.578 0 0 1 6.601-2.435Z"/></g><defs><clipPath id="a"><path fill="#fff" transform="translate(.931 .64)" d="M0 0h20v20H0z"/></clipPath></defs></svg>