<svg width="21" height="21" fill="none" xmlns="http://www.w3.org/2000/svg"><g clip-path="url(#a)"><path d="m10.93 2.307.098.006.049.007.05.01.093.029a.828.828 0 0 1 .18.093l.088.068.212.182a9.167 9.167 0 0 0 5.99 2.114l.286-.008a.833.833 0 0 1 .837.597 10.832 10.832 0 0 1-7.673 13.542.833.833 0 0 1-.418 0A10.833 10.833 0 0 1 3.048 5.405a.833.833 0 0 1 .837-.597 9.167 9.167 0 0 0 6.276-2.106l.219-.187.08-.063a.828.828 0 0 1 .18-.093l.094-.029a.81.81 0 0 1 .1-.017l.095-.006Zm3.09 6.078a.833.833 0 0 0-1.178 0l-2.745 2.743-1.077-1.077-.078-.069a.833.833 0 0 0-1.1 1.248l1.666 1.666.079.07a.834.834 0 0 0 1.1-.07l3.333-3.333.07-.078a.833.833 0 0 0-.07-1.1Z" fill="#303030"/></g><defs><clipPath id="a"><path fill="#fff" transform="translate(.931 .64)" d="M0 0h20v20H0z"/></clipPath></defs></svg>