<svg width="21" height="21" fill="none" xmlns="http://www.w3.org/2000/svg"><g clip-path="url(#a)"><path d="M16.209 2.307A3.056 3.056 0 0 1 19.26 5.2l.004.163v10.555a3.056 3.056 0 0 1-2.894 3.052l-.162.004H5.654a3.056 3.056 0 0 1-3.052-2.893l-.004-.163V5.363a3.056 3.056 0 0 1 2.893-3.052l.163-.004h10.555ZM10.93 13.14a.834.834 0 0 0-.833.834v1.666l.006.098a.833.833 0 0 0 1.66-.098v-1.666l-.005-.098a.833.833 0 0 0-.828-.736Zm2.5-3.333a.833.833 0 0 0-.833.833v5l.006.098a.833.833 0 0 0 1.66-.098v-5l-.005-.097a.834.834 0 0 0-.828-.736Zm2.5 1.667a.833.833 0 0 0-.833.833v3.333l.006.098a.833.833 0 0 0 1.66-.098v-3.333l-.005-.097a.833.833 0 0 0-.828-.736Z" fill="#303030"/></g><defs><clipPath id="a"><path fill="#fff" transform="translate(.931 .64)" d="M0 0h20v20H0z"/></clipPath></defs></svg>