<svg width="21" height="21" fill="none" xmlns="http://www.w3.org/2000/svg"><g clip-path="url(#a)"><path d="m7.802 6.757-5.317.77-.094.02a.833.833 0 0 0-.367 1.403l3.852 3.75-.909 5.295-.01.092a.834.834 0 0 0 1.22.787l4.755-2.5 4.744 2.5.083.038a.833.833 0 0 0 1.127-.917l-.91-5.295 3.854-3.75.065-.071a.834.834 0 0 0-.528-1.35l-5.316-.772-2.377-4.817a.833.833 0 0 0-1.495 0L7.802 6.757Z" fill="#303030"/></g><defs><clipPath id="a"><path fill="#fff" transform="translate(.931 .64)" d="M0 0h20v20H0z"/></clipPath></defs></svg>