<svg width="21" height="21" fill="none" xmlns="http://www.w3.org/2000/svg"><g clip-path="url(#a)"><path d="M5.782 4.732c3.249-2.304 7.891-2.116 10.894.447 3.056 2.606 3.474 6.865.96 9.914-2.368 2.872-6.637 3.82-10.192 2.337l-.193-.084-3.646.776-.063.01-.091.008-.095-.003-.036-.004-.092-.017-.087-.028-.084-.037-.063-.035-.09-.064-.068-.062-.06-.069-.045-.062-.054-.096-.035-.088-.026-.095-.01-.062-.008-.092.003-.094.005-.037.016-.091.019-.06.958-2.876-.018-.03C1.739 11.015 2.573 7.145 5.59 4.873l.191-.14h.001Z" fill="#303030"/></g><defs><clipPath id="a"><path fill="#fff" transform="translate(.931 .64)" d="M0 0h20v20H0z"/></clipPath></defs></svg>