<svg width="21" height="21" fill="none" xmlns="http://www.w3.org/2000/svg"><g clip-path="url(#a)"><path d="M16.765 3.974a2.5 2.5 0 0 1 2.5 2.5v8.333a2.5 2.5 0 0 1-2.5 2.5H5.098a2.5 2.5 0 0 1-2.5-2.5V6.474a2.5 2.5 0 0 1 2.5-2.5h11.667ZM5.94 6.474l-.106.006a.833.833 0 0 0 .097 1.66l.106-.005a.833.833 0 0 0-.097-1.661Zm2.5 0-.106.006a.833.833 0 0 0 .097 1.66l.106-.005a.833.833 0 0 0-.097-1.661Z" fill="#303030"/></g><defs><clipPath id="a"><path fill="#fff" transform="translate(.931 .64)" d="M0 0h20v20H0z"/></clipPath></defs></svg>