<svg width="21" height="21" fill="none" xmlns="http://www.w3.org/2000/svg"><g clip-path="url(#a)" fill="#303030"><path d="M9.166 2.48a1.583 1.583 0 0 1 1.74 1.268l.02.14.005.086v3.333a.833.833 0 0 1-.535.778l-.089.03a2.583 2.583 0 1 0 3.108 3.293l.042-.144a.833.833 0 0 1 .713-.618l.094-.005h3.166a1.667 1.667 0 0 1 1.667 1.666.834.834 0 0 1-.021.189A8.333 8.333 0 1 1 8.85 2.552l.225-.056.092-.017v.001Z"/><path d="M13.244 2.746a.83.83 0 0 1 .183-.022l.102.006.093.016.086.025A8.333 8.333 0 0 1 18.71 7.62l.09.245a.832.832 0 0 1-.686 1.104l-.1.006h-3.75a.833.833 0 0 1-.633-.292 6.671 6.671 0 0 0-.741-.741.833.833 0 0 1-.285-.53l-.007-.104V3.561l.005-.098a.967.967 0 0 1 .017-.097l.025-.085a.83.83 0 0 1 .14-.25l.059-.066c.025-.024.048-.044.072-.063l.075-.052.074-.042.085-.036.094-.026Z"/></g><defs><clipPath id="a"><path fill="#fff" transform="translate(.931 .64)" d="M0 0h20v20H0z"/></clipPath></defs></svg>