<svg width="21" height="21" fill="none" xmlns="http://www.w3.org/2000/svg"><g clip-path="url(#a)"><path d="M16.765 3.14a2.5 2.5 0 0 1 2.495 2.354l.005.147v10a2.5 2.5 0 0 1-2.354 2.495l-.146.005H5.098a2.5 2.5 0 0 1-2.496-2.354l-.004-.147v-10a2.5 2.5 0 0 1 2.353-2.495l.147-.005h11.667Zm-1.667 10H6.765l-.098.006a.834.834 0 0 0 0 1.655l.098.006h8.333l.097-.006a.833.833 0 0 0 0-1.655l-.097-.006Zm0-3.333H6.765l-.098.006a.833.833 0 0 0 0 1.655l.098.006h8.333l.097-.006a.833.833 0 0 0 0-1.655l-.097-.006Zm0-3.333H6.765l-.098.006a.833.833 0 0 0 0 1.655l.098.005h8.333l.097-.005a.833.833 0 0 0 0-1.655l-.097-.006Z" fill="#303030"/></g><defs><clipPath id="a"><path fill="#fff" transform="translate(.931 .64)" d="M0 0h20v20H0z"/></clipPath></defs></svg>