<svg width="32" height="32" fill="none" xmlns="http://www.w3.org/2000/svg"><rect width="32" height="32" rx="16" fill="#D111CA"/><g clip-path="url(#a)" stroke="#fff" stroke-width="1.5" stroke-linecap="round" stroke-linejoin="round"><path d="M11.333 10.667H14L15.333 14l-1.666 1A7.333 7.333 0 0 0 17 18.333l1-1.666L21.333 18v2.667A1.333 1.333 0 0 1 20 22a10.666 10.666 0 0 1-10-10 1.334 1.334 0 0 1 1.333-1.333ZM18 12.667A1.333 1.333 0 0 1 19.333 14M18 10a4 4 0 0 1 4 4"/></g><defs><clipPath id="a"><path fill="#fff" transform="translate(8 8)" d="M0 0h16v16H0z"/></clipPath></defs></svg>