<svg width="21" height="20" fill="none" xmlns="http://www.w3.org/2000/svg"><g clip-path="url(#a)" fill="#FEFFFD"><path d="M13.398 5.06a6.666 6.666 0 1 1-9.996 6.01l-.004-.237.004-.237a6.667 6.667 0 0 1 9.996-5.536ZM10.065 7.5a.833.833 0 0 0-.833.833v2.5l.005.098a.833.833 0 0 0 .828.736h1.667l.097-.006a.833.833 0 0 0 .736-.828l-.006-.097a.833.833 0 0 0-.827-.736h-.834V8.333l-.006-.097a.834.834 0 0 0-.827-.736Z"/><path d="M5.407 2.66a.833.833 0 0 1 1.06 1.282l-.08.067-2.292 1.666a.833.833 0 0 1-1.06-1.283l.08-.067L5.407 2.66ZM13.557 2.843a.833.833 0 0 1 1.076-.24l.088.056 2.292 1.667a.834.834 0 0 1-.892 1.404l-.088-.056-2.292-1.667a.833.833 0 0 1-.184-1.164Z"/></g><defs><clipPath id="a"><path fill="#fff" transform="translate(.065)" d="M0 0h20v20H0z"/></clipPath></defs></svg>