<svg width="204" height="35" fill="none" xmlns="http://www.w3.org/2000/svg"><path d="M204 18.847c0 .451-.03.857-.09 1.218h-9.131c.076.901.391 1.608.947 2.119.556.51 1.24.766 2.052.766 1.172 0 2.006-.503 2.502-1.51h3.405c-.361 1.202-1.053 2.194-2.075 2.976-1.022.766-2.277 1.15-3.764 1.15-1.203 0-2.285-.263-3.247-.79a5.806 5.806 0 0 1-2.232-2.276c-.526-.977-.789-2.105-.789-3.382 0-1.293.263-2.427.789-3.404a5.507 5.507 0 0 1 2.21-2.255c.946-.526 2.036-.789 3.269-.789 1.187 0 2.246.256 3.178.767a5.287 5.287 0 0 1 2.187 2.186c.526.932.789 2.007.789 3.224Zm-3.269-.902c-.015-.811-.308-1.457-.879-1.938-.571-.496-1.27-.744-2.097-.744-.781 0-1.443.24-1.984.721-.526.466-.849 1.12-.969 1.961h5.929ZM184.885 25.566c-1.023 0-1.939-.18-2.751-.541-.812-.376-1.458-.88-1.939-1.511a3.841 3.841 0 0 1-.766-2.097h3.179c.06.481.293.88.698 1.195.421.316.94.474 1.556.474.601 0 1.067-.12 1.398-.361.345-.24.518-.549.518-.924 0-.406-.21-.707-.631-.902-.406-.21-1.06-.436-1.961-.677-.932-.225-1.699-.458-2.3-.698a4.09 4.09 0 0 1-1.533-1.105c-.421-.496-.631-1.165-.631-2.006 0-.692.195-1.323.586-1.894.406-.571.977-1.022 1.713-1.353.752-.33 1.631-.496 2.638-.496 1.488 0 2.675.376 3.562 1.127.887.737 1.375 1.736 1.466 2.999h-3.021c-.046-.496-.256-.887-.632-1.173-.36-.3-.849-.45-1.465-.45-.571 0-1.015.105-1.33.315-.301.21-.451.504-.451.88 0 .42.21.743.631.969.421.21 1.075.428 1.961.654.902.225 1.646.458 2.232.698.587.241 1.09.617 1.511 1.128.436.496.661 1.157.676 1.984a3.27 3.27 0 0 1-.608 1.939c-.391.57-.962 1.022-1.714 1.352-.736.316-1.601.474-2.592.474ZM176.986 8.68v16.683h-3.156V8.68h3.156ZM170.716 12.873v12.49h-3.179v-1.578c-.406.54-.939.969-1.6 1.285-.647.3-1.353.45-2.12.45-.977 0-1.841-.202-2.592-.608-.752-.421-1.345-1.03-1.781-1.826-.421-.812-.632-1.774-.632-2.886v-7.327h3.157v6.876c0 .992.248 1.759.744 2.3.496.526 1.172.789 2.029.789.871 0 1.555-.263 2.051-.79.496-.54.744-1.307.744-2.299v-6.876h3.179ZM156.684 14.496c0 .842-.203 1.63-.609 2.367-.39.737-1.014 1.33-1.871 1.781-.841.451-1.908.677-3.201.677h-2.638v6.042h-3.156V9.627h5.794c1.217 0 2.254.21 3.111.63.857.422 1.496 1 1.916 1.737.436.736.654 1.57.654 2.502Zm-5.816 2.277c.871 0 1.518-.195 1.939-.586.42-.406.631-.97.631-1.69 0-1.534-.857-2.3-2.57-2.3h-2.503v4.576h2.503ZM140.143 15.466v6.042c0 .42.098.729.293.924.211.18.556.27 1.037.27h1.466v2.66h-1.984c-2.66 0-3.99-1.292-3.99-3.877v-6.02h-1.488v-2.592h1.488V9.784h3.178v3.089h2.796v2.593h-2.796ZM134.165 18.847c0 .451-.03.857-.09 1.218h-9.131c.076.901.391 1.608.947 2.119.556.51 1.24.766 2.052.766 1.172 0 2.006-.503 2.502-1.51h3.405c-.361 1.202-1.052 2.194-2.074 2.976-1.023.766-2.277 1.15-3.765 1.15-1.203 0-2.285-.263-3.247-.79a5.806 5.806 0 0 1-2.232-2.276c-.526-.977-.789-2.105-.789-3.382 0-1.293.263-2.427.789-3.404a5.507 5.507 0 0 1 2.21-2.255c.946-.526 2.036-.789 3.269-.789 1.187 0 2.247.256 3.178.767a5.287 5.287 0 0 1 2.187 2.186c.526.932.789 2.007.789 3.224Zm-3.269-.902c-.015-.811-.308-1.457-.879-1.938-.571-.496-1.27-.744-2.097-.744-.781 0-1.442.24-1.984.721-.526.466-.849 1.12-.969 1.961h5.929ZM116.783 25.363l-4.238-5.32v5.32h-3.156V8.68h3.156v9.491l4.193-5.298h4.103l-5.501 6.267 5.546 6.223h-4.103ZM103.431 14.812a4.463 4.463 0 0 1 1.578-1.556c.661-.376 1.413-.563 2.254-.563v3.314h-.834c-.992 0-1.743.233-2.254.699-.496.466-.744 1.277-.744 2.434v6.223h-3.157v-12.49h3.157v1.939ZM84.183 19.073c0-1.263.248-2.383.744-3.36.51-.976 1.194-1.728 2.051-2.254.872-.526 1.841-.789 2.908-.789.932 0 1.744.188 2.435.564.707.375 1.27.849 1.691 1.42v-1.781h3.179v12.49h-3.179v-1.826c-.406.586-.97 1.074-1.69 1.465-.707.376-1.526.564-2.458.564a5.365 5.365 0 0 1-2.886-.812c-.856-.541-1.54-1.3-2.051-2.277-.496-.992-.744-2.127-.744-3.404Zm9.83.045c0-.767-.151-1.42-.452-1.961a3.084 3.084 0 0 0-1.217-1.263c-.511-.3-1.06-.45-1.646-.45-.586 0-1.127.142-1.623.427-.496.286-.902.707-1.218 1.263-.3.541-.45 1.187-.45 1.939 0 .751.15 1.412.45 1.984.316.556.722.984 1.218 1.285.51.3 1.052.45 1.623.45a3.32 3.32 0 0 0 1.646-.428 3.28 3.28 0 0 0 1.217-1.262c.3-.556.451-1.218.451-1.984ZM81.874 9.627v15.736h-3.156V15.127l-4.216 10.236h-2.39l-4.238-10.236v10.236h-3.156V9.627h3.584l5.005 11.7 5.005-11.7h3.562ZM37.34.037v34.25h-6.869V12.01l-9.176 22.277h-5.2L6.868 12.01v22.277H0V.037h7.802l10.893 25.466L29.588.037h7.752Z" fill="#FEFFFD"/><path d="M55.324 10.599c0 1.832-.441 3.549-1.325 5.152-.85 1.603-2.208 2.895-4.072 3.876-1.832.981-4.155 1.472-6.968 1.472h-5.74v13.15h-6.87V0h12.61c2.65 0 4.907.458 6.771 1.374 1.865.916 3.255 2.175 4.171 3.778.949 1.603 1.423 3.418 1.423 5.447Zm-12.66 4.956c1.898 0 3.304-.426 4.22-1.276.916-.883 1.374-2.11 1.374-3.68 0-3.337-1.864-5.005-5.593-5.005h-5.447v9.96h5.447Z" fill="#FEFFFD"/></svg>