<svg width="21" height="21" fill="none" xmlns="http://www.w3.org/2000/svg"><g clip-path="url(#a)" fill="#FEFFFD"><path d="M18.398 6.436v7.887a2.5 2.5 0 0 1-2.353 2.496l-.147.004H4.231a2.5 2.5 0 0 1-2.495-2.353l-.005-.147V6.436l7.871 5.247.097.055a.833.833 0 0 0 .732 0l.096-.055 7.871-5.247Z"/><path d="M15.898 3.49c.9 0 1.69.475 2.13 1.189l-7.963 5.308L2.103 4.68a2.5 2.5 0 0 1 1.961-1.183l.168-.006h11.666Z"/></g><defs><clipPath id="a"><path fill="#fff" transform="translate(.065 .156)" d="M0 0h20v20H0z"/></clipPath></defs></svg>