<svg width="21" height="20" fill="none" xmlns="http://www.w3.org/2000/svg"><g clip-path="url(#a)"><path d="M13.398 1.667a2.5 2.5 0 0 1 2.496 2.353l.004.147v11.666a2.5 2.5 0 0 1-2.353 2.496l-.147.004H6.731a2.5 2.5 0 0 1-2.495-2.353l-.005-.147V4.167A2.5 2.5 0 0 1 6.585 1.67l.146-.004h6.667Zm-3.333 11.666a.833.833 0 0 0-.828.736l-.006.098.006.106a.833.833 0 0 0 1.655 0l.006-.098-.006-.106a.833.833 0 0 0-.827-.736Zm.833-10H9.231l-.097.006a.833.833 0 0 0 0 1.655L9.23 5h1.667l.098-.006a.833.833 0 0 0 0-1.655l-.098-.006Z" fill="#FEFFFD"/></g><defs><clipPath id="a"><path fill="#fff" transform="translate(.065)" d="M0 0h20v20H0z"/></clipPath></defs></svg>