<svg width="75" height="75" fill="none" xmlns="http://www.w3.org/2000/svg"><circle cx="37.515" cy="37.291" r="32" transform="rotate(-10 37.515 37.29)" fill="#FEFFFD"/><path d="M48.78 26.495c-.065-2.896-.83-4.7-2.649-6.168-2.002-1.66-5.17-1.922-9.062-1.235l-11.173 1.97c-.793.14-1.34.832-1.344 1.653l.542 30.47a.966.966 0 0 0 1.128.92l6.92-1.22.031 3.126c.017.519.454.889 1.03.787l5.84-1.03c.72-.126 1.208-.734 1.165-1.398l-.126-7.88c-.043-.663.517-1.284 1.166-1.398l.865-.153c5.622-.991 9.683-4.093 9.808-10.974.02-2.836-.617-5.184-2.34-6.52-.52-.43-1.09-.703-1.802-.95Z" fill="#009CDE"/><path d="M48.78 26.495c-.065-2.896-.83-4.7-2.649-6.168-2.002-1.66-5.17-1.922-9.062-1.235l-11.173 1.97c-.793.14-1.34.832-1.344 1.653l.542 30.47a.965.965 0 0 0 1.128.92l6.92-1.22-.229-10.993c.004-.821.551-1.514 1.344-1.654l3.316-.584c6.487-1.144 11.074-4.637 11.164-12.555.047-.158.008-.375.042-.604Z" fill="#012169"/><path d="M32.718 29.401c-.018-.518.516-1.284 1.165-1.398l8.794-1.55a18.253 18.253 0 0 1 2.922-.292c.818.005 2.324.112 3.121.419-.065-2.896-.829-4.7-2.648-6.168-1.943-1.745-5.11-2.007-9.003-1.32l-11.173 1.97c-.793.14-1.34.832-1.344 1.653l.542 30.47a.965.965 0 0 0 1.128.92l6.92-1.22-.424-23.483Z" fill="#003087"/></svg>