<svg width="21" height="21" fill="none" xmlns="http://www.w3.org/2000/svg"><g clip-path="url(#a)"><path d="M7.565 2.656a.833.833 0 0 1 .73.433l.043.091 1.667 4.167a.833.833 0 0 1-.261.967l-.083.056-1.395.837.052.086a8.332 8.332 0 0 0 2.61 2.61l.085.052.838-1.394a.833.833 0 0 1 .927-.377l.096.032 4.167 1.667a.834.834 0 0 1 .518.672l.006.101v3.334c0 1.38-1.12 2.5-2.55 2.498-7.15-.434-12.848-6.133-13.283-13.332A2.5 2.5 0 0 1 4.085 2.66l.147-.004h3.333Z" fill="#FEFFFD"/></g><defs><clipPath id="a"><path fill="#fff" transform="translate(.065 .156)" d="M0 0h20v20H0z"/></clipPath></defs></svg>