<svg width="75" height="75" fill="none" xmlns="http://www.w3.org/2000/svg"><circle cx="37.259" cy="37.799" r="32" transform="rotate(-10 37.259 37.8)" fill="#FEFFFD"/><path d="M52.278 44.668c-.13-.436-.566-1.412-1.277-1.557-.355-.072-.618.082-.704.34-.14.404.138 1.083.633 1.645.493.56.907.812 1.163.767.256-.046.43-.4.185-1.195ZM49.012 47.08c-.474-.294-.966-.396-1.375-.323-.358.063-.616.242-.754.51-.358.657.03 1.67.858 2.171.357.234.845.31 1.28.234.435-.077.785-.328.965-.656.308-.649-.061-1.394-.974-1.935Z" fill="#FF8C00"/><path d="M19.253 40.986c1.755 9.952 11.052 16.63 20.77 14.918h-.001c2.583-.456 5.052-1.404 8.806-2.094 3.35-.59 7.244-.035 11.93 2.92.474.294.928-.272.491-.654-4.873-4.46-8.725-4.78-12.555-4.97-4.68-.227-7.434-2.388-9.549-4.959-.408-.522-.543-.39-.44.348.162 1.084.43 2.15.799 3.181l-.536.095c-6.419 1.132-12.578-3.292-13.737-9.866-1.159-6.575 3.115-12.838 9.533-13.97 6.418-1.131 12.577 3.293 13.736 9.867.083.471.14.947.168 1.401-.897-.004-2.564.264-3.721.576-.426.129-.338.329.004.323 3.965.056 7.028 2.029 8.422 6.346.044.1.177.104.214.017a18.75 18.75 0 0 0 .85-9.683c-1.755-9.952-11.053-16.63-20.77-14.917-9.715 1.713-16.169 11.168-14.414 21.12Z" fill="#FF8C00"/></svg>