<svg width="21" height="20" fill="none" xmlns="http://www.w3.org/2000/svg"><g clip-path="url(#a)" fill="#FEFFFD"><path d="M3.397 9.167a.833.833 0 0 1 .098 1.66l-.098.006h-.833a.834.834 0 0 1-.098-1.66l.098-.006h.833ZM10.065 1.667a.833.833 0 0 1 .827.736l.006.097v.833a.833.833 0 0 1-1.66.098l-.007-.098V2.5a.833.833 0 0 1 .834-.833ZM17.564 9.167a.834.834 0 0 1 .097 1.66l-.097.006h-.833a.834.834 0 0 1-.098-1.66l.098-.006h.833ZM4.143 4.078a.833.833 0 0 1 1.1-.07l.079.07.583.583a.833.833 0 0 1-1.1 1.248l-.078-.07-.584-.583a.833.833 0 0 1 0-1.178ZM14.807 4.078a.833.833 0 0 1 1.248 1.1l-.07.078-.583.583a.833.833 0 0 1-1.247-1.1l.07-.078.582-.583ZM11.732 15a.833.833 0 0 1 .833.833 2.5 2.5 0 1 1-5 0 .833.833 0 0 1 .736-.827L8.398 15h3.334ZM10.065 5a5 5 0 0 1 3 9 .832.832 0 0 1-.393.16l-.107.007h-5a.833.833 0 0 1-.5-.167 5 5 0 0 1 3-9Z"/></g><defs><clipPath id="a"><path fill="#fff" transform="translate(.065)" d="M0 0h20v20H0z"/></clipPath></defs></svg>