<svg width="21" height="20" fill="none" xmlns="http://www.w3.org/2000/svg"><g clip-path="url(#a)"><path d="m10.063 1.667.098.006.05.006.05.011.093.028a.83.83 0 0 1 .18.094l.087.068.213.182a9.166 9.166 0 0 0 5.99 2.114l.285-.008a.833.833 0 0 1 .838.597 10.834 10.834 0 0 1-7.673 13.542.833.833 0 0 1-.419 0A10.833 10.833 0 0 1 2.181 4.765a.833.833 0 0 1 .837-.597 9.167 9.167 0 0 0 6.276-2.106l.22-.188.08-.062a.828.828 0 0 1 .18-.094l.094-.028a.809.809 0 0 1 .099-.017l.096-.006Zm3.091 6.077a.833.833 0 0 0-1.179 0l-2.744 2.744L8.153 9.41l-.078-.07a.833.833 0 0 0-1.1 1.248l1.667 1.667.078.069a.833.833 0 0 0 1.1-.07l3.333-3.332.07-.079a.833.833 0 0 0-.07-1.1h.001Z" fill="#FEFFFD"/></g><defs><clipPath id="a"><path fill="#fff" transform="translate(.065)" d="M0 0h20v20H0z"/></clipPath></defs></svg>