<svg width="75" height="75" fill="none" xmlns="http://www.w3.org/2000/svg"><path d="M6.234 43.374C3.165 25.969 14.787 9.372 32.191 6.303c17.405-3.069 34.002 8.552 37.07 25.957 3.07 17.405-8.552 34.002-25.956 37.07C25.9 72.4 9.303 60.779 6.234 43.375Z" fill="#FEFFFD"/><path d="m11.797 27.874.236 1.341 5.039-.092c3.57-.066 6.83 2.051 8.247 5.356l10.05 23.433c.248.58.86.913 1.477.804l8.053-1.42a1.351 1.351 0 0 0 1.08-1.025l8.17-34.9a.68.68 0 0 0-.776-.828l-7.42 1.309a1.351 1.351 0 0 0-1.083 1.037l-5.372 23.952-7.213-19.2a4.063 4.063 0 0 0-4.501-2.586l-15.987 2.82Z" fill="#172A73"/></svg>