<svg width="76" height="75" fill="none" xmlns="http://www.w3.org/2000/svg"><circle cx="38.003" cy="37.308" r="32" transform="rotate(-10 38.003 37.308)" fill="#FEFFFD"/><path d="M33.927 14.817a22.77 22.77 0 0 1 10.255.541c.508.133 1.027.307 1.541.483l-1.73 2.212-3.651-2.682-4.478 5.667-3.726-2.846-8.213 10.537 7.474 5.82-2.062 2.58 7.39 5.836-2.063 2.58 10.562 8.29 4.373-5.737 5.453 4.36c-.779.848-1.642 1.71-2.606 2.5a22.665 22.665 0 0 1-10.537 4.871C29.528 62.012 17.68 53.684 15.49 41.258 13.27 28.923 21.548 17 33.927 14.817Zm-.39 21.839 4.506-5.76 5.746 4.528-4.507 5.76-5.745-4.528Zm5.451 8.616 4.455-5.796 5.788 4.521-4.505 5.761-5.738-4.486ZM28.112 28.169l4.504-5.76 5.745 4.529-4.505 5.76-5.744-4.53Zm9.353-4.31 3.347-4.315 4.304 3.365-3.34 4.357-4.312-3.407Zm10.03 15.3 3.346-4.313 4.312 3.406-3.347 4.317-4.31-3.41Zm4.946 7.51 3.347-4.316 4.301 3.365-3.338 4.357-4.31-3.406Zm-1.648-18.865 2.23-2.876 2.87 2.244-2.231 2.876-2.869-2.244Zm-4.83-7.35 2.224-2.92 2.877 2.286-2.233 2.877-2.868-2.243Zm9.617 14.71 2.23-2.877 2.912 2.236-2.273 2.883-2.87-2.242Zm-13.005-3.87 3.347-4.315 4.302 3.364-3.345 4.315-4.304-3.364Z" fill="#036CB5"/></svg>