<svg width="21" height="20" fill="none" xmlns="http://www.w3.org/2000/svg"><g clip-path="url(#a)"><path d="m6.935 6.117-5.317.77-.094.02a.833.833 0 0 0-.366 1.403l3.851 3.75-.908 5.295-.011.092a.834.834 0 0 0 1.22.786l4.755-2.5 4.744 2.5.084.039a.833.833 0 0 0 1.126-.917l-.909-5.296 3.853-3.75.065-.07a.833.833 0 0 0-.527-1.35l-5.317-.772L10.807 1.3a.833.833 0 0 0-1.494 0L6.935 6.117Z" fill="#FEFFFD"/></g><defs><clipPath id="a"><path fill="#fff" transform="translate(.065)" d="M0 0h20v20H0z"/></clipPath></defs></svg>