<svg width="75" height="75" viewBox="0 0 75 75" fill="none" xmlns="http://www.w3.org/2000/svg">
<circle cx="37.2589" cy="37.7993" r="32" transform="rotate(-10 37.2589 37.7993)" fill="#FEFFFD"/>
<path d="M52.2777 44.6683C52.1483 44.232 51.7124 43.2563 51.001 43.1114L51.0018 43.1113C50.6457 43.0389 50.3827 43.1927 50.2972 43.4512C50.1569 43.8545 50.4349 44.5341 50.9297 45.0957C51.4235 45.6566 51.8374 45.9076 52.0933 45.8625C52.3492 45.8173 52.5234 45.4626 52.2777 44.6683Z" fill="#FF8C00"/>
<path d="M49.0123 47.0806C48.5384 46.7864 48.0459 46.6844 47.6367 46.7566C47.279 46.8196 47.0207 46.9995 46.8827 47.2672C46.5248 47.9238 46.9139 48.9362 47.7408 49.4384C48.0984 49.6725 48.5862 49.7485 49.0209 49.6718C49.4557 49.5952 49.8064 49.3445 49.9861 49.0157C50.2937 48.3671 49.9248 47.6222 49.0123 47.0806Z" fill="#FF8C00"/>
<path d="M19.253 40.9857C21.0079 50.9382 30.3054 57.6169 40.0226 55.9035L40.0218 55.9036C42.6047 55.4482 45.0736 54.5 48.828 53.8103C52.1778 53.2197 56.0722 53.7752 60.7585 56.7302C61.2323 57.0244 61.6857 56.4584 61.2495 56.0762C56.3765 51.6156 52.5237 51.2961 48.6938 51.1069C44.0139 50.8787 41.2598 48.7178 39.1455 46.147C38.7371 45.6247 38.6022 45.7568 38.7053 46.4949C38.8666 47.5792 39.1342 48.645 39.5039 49.6762L38.9675 49.7708C32.5492 50.9025 26.3904 46.479 25.2312 39.9047C24.072 33.3304 28.3464 27.0672 34.7639 25.9356C41.1821 24.8039 47.3409 29.2275 48.5001 35.8017C48.5833 36.2731 48.6401 36.749 48.6678 37.2033C47.7706 37.1995 46.1043 37.4665 44.9466 37.7789C44.521 37.9076 44.6088 38.1079 44.9511 38.1021C48.9157 38.1584 51.979 40.1305 53.373 44.4483C53.4169 44.5488 53.5495 44.5523 53.5874 44.465C54.6709 41.4923 55.0323 38.1602 54.4366 34.7818C52.6819 24.8301 43.3836 18.1516 33.6672 19.8648C23.9516 21.578 17.4981 31.0331 19.253 40.9857Z" fill="#FF8C00"/>
</svg>
